%TF.GenerationSoftware,KiCad,Pcbnew,8.0.9*%
%TF.CreationDate,2025-03-26T10:44:28-07:00*%
%TF.ProjectId,bmbbmcp,626d6262-6d63-4702-9e6b-696361645f70,R1*%
%TF.SameCoordinates,Original*%
%TF.FileFunction,Copper,L3,Inr*%
%TF.FilePolarity,Positive*%
%FSLAX46Y46*%
G04 Gerber Fmt 4.6, Leading zero omitted, Abs format (unit mm)*
G04 Created by KiCad (PCBNEW 8.0.9) date 2025-03-26 10:44:28*
%MOMM*%
%LPD*%
G01*
G04 APERTURE LIST*
%TA.AperFunction,ComponentPad*%
%ADD10R,2.300000X2.300000*%
%TD*%
%TA.AperFunction,ComponentPad*%
%ADD11C,2.300000*%
%TD*%
%TA.AperFunction,HeatsinkPad*%
%ADD12O,1.000000X1.900000*%
%TD*%
%TA.AperFunction,HeatsinkPad*%
%ADD13O,1.050000X1.250000*%
%TD*%
%TA.AperFunction,ComponentPad*%
%ADD14R,1.700000X1.700000*%
%TD*%
%TA.AperFunction,ComponentPad*%
%ADD15O,1.700000X1.700000*%
%TD*%
%TA.AperFunction,ComponentPad*%
%ADD16C,0.499999*%
%TD*%
%TA.AperFunction,ViaPad*%
%ADD17C,0.600000*%
%TD*%
G04 APERTURE END LIST*
D10*
%TO.N,Net-(J5-Pin_1)*%
%TO.C,J5*%
X166300000Y-84000000D03*
D11*
%TO.N,Net-(J5-Pin_2)*%
X169800000Y-84000000D03*
%TD*%
D12*
%TO.N,unconnected-(J1-Shield-Pad6)_5*%
%TO.C,J1*%
X120620000Y-106550000D03*
D13*
%TO.N,unconnected-(J1-Shield-Pad6)_1*%
X122570000Y-103550000D03*
%TO.N,unconnected-(J1-Shield-Pad6)_2*%
X127020000Y-103550000D03*
D12*
%TO.N,unconnected-(J1-Shield-Pad6)*%
X128970000Y-106550000D03*
%TD*%
D14*
%TO.N,+BATT*%
%TO.C,J3*%
X143920000Y-105000000D03*
D15*
%TO.N,+3.3V*%
X146460000Y-105000000D03*
%TO.N,/BTN1*%
X149000000Y-105000000D03*
%TO.N,GND*%
X151540000Y-105000000D03*
%TO.N,unconnected-(J3-Pin_5-Pad5)*%
X154080000Y-105000000D03*
%TO.N,unconnected-(J3-Pin_6-Pad6)*%
X156620000Y-105000000D03*
%TO.N,unconnected-(J3-Pin_7-Pad7)*%
X159160000Y-105000000D03*
%TO.N,unconnected-(J3-Pin_8-Pad8)*%
X161700000Y-105000000D03*
%TO.N,unconnected-(J3-Pin_9-Pad9)*%
X164240000Y-105000000D03*
%TO.N,unconnected-(J3-Pin_10-Pad10)*%
X166780000Y-105000000D03*
%TO.N,unconnected-(J3-Pin_11-Pad11)*%
X169320000Y-105000000D03*
%TO.N,unconnected-(J3-Pin_12-Pad12)*%
X171860000Y-105000000D03*
%TD*%
D16*
%TO.N,GND*%
%TO.C,U4*%
X156650002Y-98500001D03*
X156650002Y-97750000D03*
X156650002Y-96999999D03*
%TD*%
D10*
%TO.N,Net-(J7-Pin_1)*%
%TO.C,J7*%
X147500000Y-84000000D03*
D11*
%TO.N,Net-(J7-Pin_2)*%
X151000000Y-84000000D03*
%TD*%
D10*
%TO.N,Net-(J6-Pin_1)*%
%TO.C,J6*%
X155900000Y-84000000D03*
D11*
%TO.N,Net-(J6-Pin_2)*%
X159400000Y-84000000D03*
%TD*%
D17*
%TO.N,+3.3V*%
X128400000Y-84400000D03*
X183200000Y-89200000D03*
X137200000Y-85000000D03*
X139200000Y-88800000D03*
X150200000Y-90400000D03*
X167000000Y-90800000D03*
%TO.N,GND*%
X123600000Y-100600000D03*
X123000000Y-86000000D03*
X157600000Y-95800000D03*
X137200000Y-88000000D03*
X153600000Y-95000000D03*
X161600000Y-98200000D03*
X123000000Y-81000000D03*
X140000000Y-82200000D03*
X184000000Y-96000000D03*
X148600000Y-98600000D03*
X132400000Y-103200000D03*
X141200000Y-93200000D03*
X139000000Y-103200000D03*
X165400000Y-94250000D03*
X170250000Y-91800000D03*
X131800000Y-82200000D03*
X167550000Y-99210000D03*
%TO.N,VBUS*%
X137200000Y-89000000D03*
X147600000Y-90400000D03*
%TO.N,+BATT*%
X159800000Y-101000000D03*
X148800000Y-101400000D03*
%TO.N,Net-(U2-EN)*%
X146000000Y-99600000D03*
X148800000Y-99600000D03*
%TO.N,/SWITCH*%
X141000000Y-99200000D03*
X130800000Y-99200000D03*
%TO.N,/SPI_MOSI*%
X181200000Y-86200000D03*
X132600000Y-86200000D03*
%TO.N,/SPI_SCLK*%
X180400000Y-86800000D03*
X133400000Y-86800000D03*
%TO.N,/SPI_CS1*%
X127200000Y-85600000D03*
X182000000Y-85600000D03*
%TO.N,/SPI_MISO*%
X177600000Y-87600000D03*
X130400000Y-87400000D03*
%TO.N,/MOTOR_B1*%
X133200000Y-96800000D03*
X155800000Y-94800000D03*
%TO.N,/MOTOR_B2*%
X130800000Y-96015000D03*
X157200000Y-94400000D03*
%TO.N,/MOTOR_A2*%
X132000000Y-95600000D03*
X154800000Y-95000000D03*
%TO.N,/I2S_MODE*%
X169400000Y-91400000D03*
X131600000Y-91400000D03*
%TO.N,/MOTOR_CTRL*%
X128200000Y-94200000D03*
X154000000Y-98400000D03*
%TO.N,/I2S_LRCK*%
X167000000Y-96400000D03*
X132400000Y-92000000D03*
%TO.N,/MOTOR_A1*%
X154200000Y-97400000D03*
X133000000Y-98400000D03*
%TO.N,/I2S_DOUT*%
X133200000Y-94000000D03*
X170000000Y-97400000D03*
%TO.N,/I2S_SCK*%
X169000000Y-96600000D03*
X133400000Y-92600000D03*
%TD*%
M02*
