M48
; DRILL file {KiCad 8.0.9} date 2025-03-20T13:35:36-0700
; FORMAT={-:-/ absolute / inch / decimal}
; #@! TF.CreationDate,2025-03-20T13:35:36-07:00
; #@! TF.GenerationSoftware,Kicad,Pcbnew,8.0.9
; #@! TF.FileFunction,Plated,1,4,PTH
FMAT,2
INCH
; #@! TA.AperFunction,Plated,PTH,ViaDrill
T1C0.0157
; #@! TA.AperFunction,Plated,PTH,ComponentDrill
T2C0.0236
; #@! TA.AperFunction,Plated,PTH,ComponentDrill
T3C0.0256
; #@! TA.AperFunction,Plated,PTH,ComponentDrill
T4C0.0315
%
G90
G05
T1
X4.9376Y-3.4415
X4.9376Y-3.8746
X4.977Y-3.4415
X5.0163Y-3.4415
X5.1935Y-3.5793
X5.288Y-3.4376
X5.3352Y-3.4376
X5.3964Y-3.5005
X5.3982Y-3.4691
X5.4494Y-3.54
X5.4494Y-3.7762
X5.7447Y-3.4612
X5.7447Y-3.7959
X5.7644Y-3.6581
X5.8667Y-3.5754
X5.9219Y-3.599
X6.0833Y-3.5085
X6.3746Y-3.5006
X6.3746Y-3.6187
X6.3746Y-3.6974
X6.3982Y-3.4612
X6.4533Y-3.5478
X6.7289Y-3.6974
X6.7604Y-3.8628
X6.7683Y-3.6974
X6.788Y-3.599
X6.8077Y-3.8746
T4
X6.2959Y-3.8549
X6.3746Y-3.8549
X6.4533Y-3.8549
X6.5321Y-3.8549
T2
G00X6.5858Y-3.4533
M15
G01X6.5858Y-3.4258
M16
G05
G00X6.9146Y-3.4533
M15
G01X6.9146Y-3.4258
M16
G05
T3
G00X6.6626Y-3.5616
M15
G01X6.6626Y-3.5537
M16
G05
G00X6.8378Y-3.5616
M15
G01X6.8378Y-3.5537
M16
G05
M30
