M48
; DRILL file {KiCad 8.0.9} date 2025-04-21T13:45:24-0700
; FORMAT={-:-/ absolute / inch / decimal}
; #@! TF.CreationDate,2025-04-21T13:45:24-07:00
; #@! TF.GenerationSoftware,Kicad,Pcbnew,8.0.9
; #@! TF.FileFunction,Plated,1,4,PTH
FMAT,2
INCH
; #@! TA.AperFunction,Plated,PTH,ComponentDrill
T1C0.0080
; #@! TA.AperFunction,Plated,PTH,ViaDrill
T2C0.0157
; #@! TA.AperFunction,Plated,PTH,ComponentDrill
T3C0.0236
; #@! TA.AperFunction,Plated,PTH,ComponentDrill
T4C0.0256
; #@! TA.AperFunction,Plated,PTH,ComponentDrill
T5C0.0394
; #@! TA.AperFunction,Plated,PTH,ComponentDrill
T6C0.0472
%
G90
G05
T1
X6.1673Y-3.8189
X6.1673Y-3.8484
X6.1673Y-3.878
T2
X4.8425Y-3.189
X4.8425Y-3.3858
X4.8661Y-3.9606
X5.0079Y-3.3701
X5.0472Y-3.7087
X5.0551Y-3.3228
X5.1339Y-3.4409
X5.1496Y-3.7801
X5.1496Y-3.9055
X5.1811Y-3.5984
X5.189Y-3.2362
X5.1969Y-3.7638
X5.2126Y-3.622
X5.2126Y-4.063
X5.2205Y-3.3937
X5.2362Y-3.874
X5.2441Y-3.7008
X5.2441Y-3.811
X5.252Y-3.4173
X5.252Y-3.6457
X5.2913Y-3.874
X5.4016Y-3.3465
X5.4016Y-3.4646
X5.4016Y-3.5039
X5.4724Y-4.063
X5.4803Y-3.4961
X5.5118Y-3.2362
X5.5512Y-3.9055
X5.5591Y-3.6693
X5.748Y-3.9213
X5.811Y-3.5591
X5.8504Y-3.8819
X5.8583Y-3.9213
X5.8583Y-3.9921
X5.9134Y-3.5591
X6.0472Y-3.7402
X6.063Y-3.874
X6.0709Y-3.8346
X6.0945Y-3.7402
X6.1339Y-3.7323
X6.189Y-3.7165
X6.2047Y-3.7717
X6.2913Y-3.9764
X6.3622Y-3.8661
X6.5118Y-3.7106
X6.5748Y-3.5748
X6.5748Y-3.7953
X6.5965Y-3.9059
X6.6535Y-3.8031
X6.6693Y-3.5984
X6.6929Y-3.8346
X6.7028Y-3.6142
X6.9921Y-3.4488
X7.1024Y-3.4173
X7.1339Y-3.3937
X7.1654Y-3.3701
X7.2126Y-3.5118
X7.2441Y-3.7795
T5
X6.2803Y-4.1181
X6.3803Y-4.1181
X6.4803Y-4.1181
T6
X5.8071Y-3.3071
X5.9449Y-3.3071
X6.1378Y-3.3071
X6.2756Y-3.3071
X6.5472Y-3.3071
X6.685Y-3.3071
T3
G00X4.7488Y-4.1811
M15
G01X4.7488Y-4.2087
M16
G05
G00X5.0776Y-4.1811
M15
G01X5.0776Y-4.2087
M16
G05
T4
G00X4.8256Y-4.0728
M15
G01X4.8256Y-4.0807
M16
G05
G00X5.0008Y-4.0728
M15
G01X5.0008Y-4.0807
M16
G05
M30
