%TF.GenerationSoftware,KiCad,Pcbnew,8.0.9*%
%TF.CreationDate,2025-03-20T13:35:36-07:00*%
%TF.ProjectId,bmbbmcp,626d6262-6d63-4702-9e6b-696361645f70,R1*%
%TF.SameCoordinates,Original*%
%TF.FileFunction,Legend,Top*%
%TF.FilePolarity,Positive*%
%FSLAX46Y46*%
G04 Gerber Fmt 4.6, Leading zero omitted, Abs format (unit mm)*
G04 Created by KiCad (PCBNEW 8.0.9) date 2025-03-20 13:35:36*
%MOMM*%
%LPD*%
G01*
G04 APERTURE LIST*
G04 Aperture macros list*
%AMRoundRect*
0 Rectangle with rounded corners*
0 $1 Rounding radius*
0 $2 $3 $4 $5 $6 $7 $8 $9 X,Y pos of 4 corners*
0 Add a 4 corners polygon primitive as box body*
4,1,4,$2,$3,$4,$5,$6,$7,$8,$9,$2,$3,0*
0 Add four circle primitives for the rounded corners*
1,1,$1+$1,$2,$3*
1,1,$1+$1,$4,$5*
1,1,$1+$1,$6,$7*
1,1,$1+$1,$8,$9*
0 Add four rect primitives between the rounded corners*
20,1,$1+$1,$2,$3,$4,$5,0*
20,1,$1+$1,$4,$5,$6,$7,0*
20,1,$1+$1,$6,$7,$8,$9,0*
20,1,$1+$1,$8,$9,$2,$3,0*%
G04 Aperture macros list end*
%ADD10C,0.150000*%
%ADD11C,0.120000*%
%ADD12C,0.127000*%
%ADD13RoundRect,0.225000X-0.225000X-0.250000X0.225000X-0.250000X0.225000X0.250000X-0.225000X0.250000X0*%
%ADD14RoundRect,0.250000X-0.250000X-0.475000X0.250000X-0.475000X0.250000X0.475000X-0.250000X0.475000X0*%
%ADD15RoundRect,0.102000X-0.450000X-0.500000X0.450000X-0.500000X0.450000X0.500000X-0.450000X0.500000X0*%
%ADD16RoundRect,0.200000X-0.200000X-0.275000X0.200000X-0.275000X0.200000X0.275000X-0.200000X0.275000X0*%
%ADD17RoundRect,0.100000X0.100000X0.575000X-0.100000X0.575000X-0.100000X-0.575000X0.100000X-0.575000X0*%
%ADD18O,1.000000X1.900000*%
%ADD19R,0.875000X1.900000*%
%ADD20O,1.050000X1.250000*%
%ADD21RoundRect,0.250000X1.200000X0.700000X-1.200000X0.700000X-1.200000X-0.700000X1.200000X-0.700000X0*%
%ADD22RoundRect,0.225000X-0.225000X-0.375000X0.225000X-0.375000X0.225000X0.375000X-0.225000X0.375000X0*%
%ADD23R,0.400000X0.600000*%
%ADD24R,0.600000X0.400000*%
%ADD25R,1.350000X1.350000*%
%ADD26O,1.350000X1.350000*%
%ADD27RoundRect,0.150000X-0.512500X-0.150000X0.512500X-0.150000X0.512500X0.150000X-0.512500X0.150000X0*%
%ADD28R,1.800000X1.000000*%
%ADD29C,0.990600*%
%ADD30C,0.787400*%
G04 APERTURE END LIST*
D10*
X145633333Y-90759580D02*
X145585714Y-90807200D01*
X145585714Y-90807200D02*
X145442857Y-90854819D01*
X145442857Y-90854819D02*
X145347619Y-90854819D01*
X145347619Y-90854819D02*
X145204762Y-90807200D01*
X145204762Y-90807200D02*
X145109524Y-90711961D01*
X145109524Y-90711961D02*
X145061905Y-90616723D01*
X145061905Y-90616723D02*
X145014286Y-90426247D01*
X145014286Y-90426247D02*
X145014286Y-90283390D01*
X145014286Y-90283390D02*
X145061905Y-90092914D01*
X145061905Y-90092914D02*
X145109524Y-89997676D01*
X145109524Y-89997676D02*
X145204762Y-89902438D01*
X145204762Y-89902438D02*
X145347619Y-89854819D01*
X145347619Y-89854819D02*
X145442857Y-89854819D01*
X145442857Y-89854819D02*
X145585714Y-89902438D01*
X145585714Y-89902438D02*
X145633333Y-89950057D01*
X146538095Y-89854819D02*
X146061905Y-89854819D01*
X146061905Y-89854819D02*
X146014286Y-90331009D01*
X146014286Y-90331009D02*
X146061905Y-90283390D01*
X146061905Y-90283390D02*
X146157143Y-90235771D01*
X146157143Y-90235771D02*
X146395238Y-90235771D01*
X146395238Y-90235771D02*
X146490476Y-90283390D01*
X146490476Y-90283390D02*
X146538095Y-90331009D01*
X146538095Y-90331009D02*
X146585714Y-90426247D01*
X146585714Y-90426247D02*
X146585714Y-90664342D01*
X146585714Y-90664342D02*
X146538095Y-90759580D01*
X146538095Y-90759580D02*
X146490476Y-90807200D01*
X146490476Y-90807200D02*
X146395238Y-90854819D01*
X146395238Y-90854819D02*
X146157143Y-90854819D01*
X146157143Y-90854819D02*
X146061905Y-90807200D01*
X146061905Y-90807200D02*
X146014286Y-90759580D01*
X149833333Y-94959580D02*
X149785714Y-95007200D01*
X149785714Y-95007200D02*
X149642857Y-95054819D01*
X149642857Y-95054819D02*
X149547619Y-95054819D01*
X149547619Y-95054819D02*
X149404762Y-95007200D01*
X149404762Y-95007200D02*
X149309524Y-94911961D01*
X149309524Y-94911961D02*
X149261905Y-94816723D01*
X149261905Y-94816723D02*
X149214286Y-94626247D01*
X149214286Y-94626247D02*
X149214286Y-94483390D01*
X149214286Y-94483390D02*
X149261905Y-94292914D01*
X149261905Y-94292914D02*
X149309524Y-94197676D01*
X149309524Y-94197676D02*
X149404762Y-94102438D01*
X149404762Y-94102438D02*
X149547619Y-94054819D01*
X149547619Y-94054819D02*
X149642857Y-94054819D01*
X149642857Y-94054819D02*
X149785714Y-94102438D01*
X149785714Y-94102438D02*
X149833333Y-94150057D01*
X150785714Y-95054819D02*
X150214286Y-95054819D01*
X150500000Y-95054819D02*
X150500000Y-94054819D01*
X150500000Y-94054819D02*
X150404762Y-94197676D01*
X150404762Y-94197676D02*
X150309524Y-94292914D01*
X150309524Y-94292914D02*
X150214286Y-94340533D01*
X148838095Y-89207200D02*
X148980952Y-89254819D01*
X148980952Y-89254819D02*
X149219047Y-89254819D01*
X149219047Y-89254819D02*
X149314285Y-89207200D01*
X149314285Y-89207200D02*
X149361904Y-89159580D01*
X149361904Y-89159580D02*
X149409523Y-89064342D01*
X149409523Y-89064342D02*
X149409523Y-88969104D01*
X149409523Y-88969104D02*
X149361904Y-88873866D01*
X149361904Y-88873866D02*
X149314285Y-88826247D01*
X149314285Y-88826247D02*
X149219047Y-88778628D01*
X149219047Y-88778628D02*
X149028571Y-88731009D01*
X149028571Y-88731009D02*
X148933333Y-88683390D01*
X148933333Y-88683390D02*
X148885714Y-88635771D01*
X148885714Y-88635771D02*
X148838095Y-88540533D01*
X148838095Y-88540533D02*
X148838095Y-88445295D01*
X148838095Y-88445295D02*
X148885714Y-88350057D01*
X148885714Y-88350057D02*
X148933333Y-88302438D01*
X148933333Y-88302438D02*
X149028571Y-88254819D01*
X149028571Y-88254819D02*
X149266666Y-88254819D01*
X149266666Y-88254819D02*
X149409523Y-88302438D01*
X150361904Y-89254819D02*
X149790476Y-89254819D01*
X150076190Y-89254819D02*
X150076190Y-88254819D01*
X150076190Y-88254819D02*
X149980952Y-88397676D01*
X149980952Y-88397676D02*
X149885714Y-88492914D01*
X149885714Y-88492914D02*
X149790476Y-88540533D01*
X140033333Y-87559580D02*
X139985714Y-87607200D01*
X139985714Y-87607200D02*
X139842857Y-87654819D01*
X139842857Y-87654819D02*
X139747619Y-87654819D01*
X139747619Y-87654819D02*
X139604762Y-87607200D01*
X139604762Y-87607200D02*
X139509524Y-87511961D01*
X139509524Y-87511961D02*
X139461905Y-87416723D01*
X139461905Y-87416723D02*
X139414286Y-87226247D01*
X139414286Y-87226247D02*
X139414286Y-87083390D01*
X139414286Y-87083390D02*
X139461905Y-86892914D01*
X139461905Y-86892914D02*
X139509524Y-86797676D01*
X139509524Y-86797676D02*
X139604762Y-86702438D01*
X139604762Y-86702438D02*
X139747619Y-86654819D01*
X139747619Y-86654819D02*
X139842857Y-86654819D01*
X139842857Y-86654819D02*
X139985714Y-86702438D01*
X139985714Y-86702438D02*
X140033333Y-86750057D01*
X140366667Y-86654819D02*
X140985714Y-86654819D01*
X140985714Y-86654819D02*
X140652381Y-87035771D01*
X140652381Y-87035771D02*
X140795238Y-87035771D01*
X140795238Y-87035771D02*
X140890476Y-87083390D01*
X140890476Y-87083390D02*
X140938095Y-87131009D01*
X140938095Y-87131009D02*
X140985714Y-87226247D01*
X140985714Y-87226247D02*
X140985714Y-87464342D01*
X140985714Y-87464342D02*
X140938095Y-87559580D01*
X140938095Y-87559580D02*
X140890476Y-87607200D01*
X140890476Y-87607200D02*
X140795238Y-87654819D01*
X140795238Y-87654819D02*
X140509524Y-87654819D01*
X140509524Y-87654819D02*
X140414286Y-87607200D01*
X140414286Y-87607200D02*
X140366667Y-87559580D01*
X163719047Y-87854819D02*
X163385714Y-87378628D01*
X163147619Y-87854819D02*
X163147619Y-86854819D01*
X163147619Y-86854819D02*
X163528571Y-86854819D01*
X163528571Y-86854819D02*
X163623809Y-86902438D01*
X163623809Y-86902438D02*
X163671428Y-86950057D01*
X163671428Y-86950057D02*
X163719047Y-87045295D01*
X163719047Y-87045295D02*
X163719047Y-87188152D01*
X163719047Y-87188152D02*
X163671428Y-87283390D01*
X163671428Y-87283390D02*
X163623809Y-87331009D01*
X163623809Y-87331009D02*
X163528571Y-87378628D01*
X163528571Y-87378628D02*
X163147619Y-87378628D01*
X164100000Y-86950057D02*
X164147619Y-86902438D01*
X164147619Y-86902438D02*
X164242857Y-86854819D01*
X164242857Y-86854819D02*
X164480952Y-86854819D01*
X164480952Y-86854819D02*
X164576190Y-86902438D01*
X164576190Y-86902438D02*
X164623809Y-86950057D01*
X164623809Y-86950057D02*
X164671428Y-87045295D01*
X164671428Y-87045295D02*
X164671428Y-87140533D01*
X164671428Y-87140533D02*
X164623809Y-87283390D01*
X164623809Y-87283390D02*
X164052381Y-87854819D01*
X164052381Y-87854819D02*
X164671428Y-87854819D01*
X165147619Y-87807200D02*
X165147619Y-87854819D01*
X165147619Y-87854819D02*
X165100000Y-87950057D01*
X165100000Y-87950057D02*
X165052381Y-87997676D01*
X165480952Y-86854819D02*
X166099999Y-86854819D01*
X166099999Y-86854819D02*
X165766666Y-87235771D01*
X165766666Y-87235771D02*
X165909523Y-87235771D01*
X165909523Y-87235771D02*
X166004761Y-87283390D01*
X166004761Y-87283390D02*
X166052380Y-87331009D01*
X166052380Y-87331009D02*
X166099999Y-87426247D01*
X166099999Y-87426247D02*
X166099999Y-87664342D01*
X166099999Y-87664342D02*
X166052380Y-87759580D01*
X166052380Y-87759580D02*
X166004761Y-87807200D01*
X166004761Y-87807200D02*
X165909523Y-87854819D01*
X165909523Y-87854819D02*
X165623809Y-87854819D01*
X165623809Y-87854819D02*
X165528571Y-87807200D01*
X165528571Y-87807200D02*
X165480952Y-87759580D01*
X171121666Y-91619819D02*
X171121666Y-92334104D01*
X171121666Y-92334104D02*
X171074047Y-92476961D01*
X171074047Y-92476961D02*
X170978809Y-92572200D01*
X170978809Y-92572200D02*
X170835952Y-92619819D01*
X170835952Y-92619819D02*
X170740714Y-92619819D01*
X172121666Y-92619819D02*
X171550238Y-92619819D01*
X171835952Y-92619819D02*
X171835952Y-91619819D01*
X171835952Y-91619819D02*
X171740714Y-91762676D01*
X171740714Y-91762676D02*
X171645476Y-91857914D01*
X171645476Y-91857914D02*
X171550238Y-91905533D01*
X159798333Y-87594580D02*
X159750714Y-87642200D01*
X159750714Y-87642200D02*
X159607857Y-87689819D01*
X159607857Y-87689819D02*
X159512619Y-87689819D01*
X159512619Y-87689819D02*
X159369762Y-87642200D01*
X159369762Y-87642200D02*
X159274524Y-87546961D01*
X159274524Y-87546961D02*
X159226905Y-87451723D01*
X159226905Y-87451723D02*
X159179286Y-87261247D01*
X159179286Y-87261247D02*
X159179286Y-87118390D01*
X159179286Y-87118390D02*
X159226905Y-86927914D01*
X159226905Y-86927914D02*
X159274524Y-86832676D01*
X159274524Y-86832676D02*
X159369762Y-86737438D01*
X159369762Y-86737438D02*
X159512619Y-86689819D01*
X159512619Y-86689819D02*
X159607857Y-86689819D01*
X159607857Y-86689819D02*
X159750714Y-86737438D01*
X159750714Y-86737438D02*
X159798333Y-86785057D01*
X160655476Y-86689819D02*
X160465000Y-86689819D01*
X160465000Y-86689819D02*
X160369762Y-86737438D01*
X160369762Y-86737438D02*
X160322143Y-86785057D01*
X160322143Y-86785057D02*
X160226905Y-86927914D01*
X160226905Y-86927914D02*
X160179286Y-87118390D01*
X160179286Y-87118390D02*
X160179286Y-87499342D01*
X160179286Y-87499342D02*
X160226905Y-87594580D01*
X160226905Y-87594580D02*
X160274524Y-87642200D01*
X160274524Y-87642200D02*
X160369762Y-87689819D01*
X160369762Y-87689819D02*
X160560238Y-87689819D01*
X160560238Y-87689819D02*
X160655476Y-87642200D01*
X160655476Y-87642200D02*
X160703095Y-87594580D01*
X160703095Y-87594580D02*
X160750714Y-87499342D01*
X160750714Y-87499342D02*
X160750714Y-87261247D01*
X160750714Y-87261247D02*
X160703095Y-87166009D01*
X160703095Y-87166009D02*
X160655476Y-87118390D01*
X160655476Y-87118390D02*
X160560238Y-87070771D01*
X160560238Y-87070771D02*
X160369762Y-87070771D01*
X160369762Y-87070771D02*
X160274524Y-87118390D01*
X160274524Y-87118390D02*
X160226905Y-87166009D01*
X160226905Y-87166009D02*
X160179286Y-87261247D01*
X139973333Y-97274580D02*
X139925714Y-97322200D01*
X139925714Y-97322200D02*
X139782857Y-97369819D01*
X139782857Y-97369819D02*
X139687619Y-97369819D01*
X139687619Y-97369819D02*
X139544762Y-97322200D01*
X139544762Y-97322200D02*
X139449524Y-97226961D01*
X139449524Y-97226961D02*
X139401905Y-97131723D01*
X139401905Y-97131723D02*
X139354286Y-96941247D01*
X139354286Y-96941247D02*
X139354286Y-96798390D01*
X139354286Y-96798390D02*
X139401905Y-96607914D01*
X139401905Y-96607914D02*
X139449524Y-96512676D01*
X139449524Y-96512676D02*
X139544762Y-96417438D01*
X139544762Y-96417438D02*
X139687619Y-96369819D01*
X139687619Y-96369819D02*
X139782857Y-96369819D01*
X139782857Y-96369819D02*
X139925714Y-96417438D01*
X139925714Y-96417438D02*
X139973333Y-96465057D01*
X140830476Y-96703152D02*
X140830476Y-97369819D01*
X140592381Y-96322200D02*
X140354286Y-97036485D01*
X140354286Y-97036485D02*
X140973333Y-97036485D01*
X155318333Y-97454819D02*
X154985000Y-96978628D01*
X154746905Y-97454819D02*
X154746905Y-96454819D01*
X154746905Y-96454819D02*
X155127857Y-96454819D01*
X155127857Y-96454819D02*
X155223095Y-96502438D01*
X155223095Y-96502438D02*
X155270714Y-96550057D01*
X155270714Y-96550057D02*
X155318333Y-96645295D01*
X155318333Y-96645295D02*
X155318333Y-96788152D01*
X155318333Y-96788152D02*
X155270714Y-96883390D01*
X155270714Y-96883390D02*
X155223095Y-96931009D01*
X155223095Y-96931009D02*
X155127857Y-96978628D01*
X155127857Y-96978628D02*
X154746905Y-96978628D01*
X156270714Y-97454819D02*
X155699286Y-97454819D01*
X155985000Y-97454819D02*
X155985000Y-96454819D01*
X155985000Y-96454819D02*
X155889762Y-96597676D01*
X155889762Y-96597676D02*
X155794524Y-96692914D01*
X155794524Y-96692914D02*
X155699286Y-96740533D01*
X148838095Y-97607200D02*
X148980952Y-97654819D01*
X148980952Y-97654819D02*
X149219047Y-97654819D01*
X149219047Y-97654819D02*
X149314285Y-97607200D01*
X149314285Y-97607200D02*
X149361904Y-97559580D01*
X149361904Y-97559580D02*
X149409523Y-97464342D01*
X149409523Y-97464342D02*
X149409523Y-97369104D01*
X149409523Y-97369104D02*
X149361904Y-97273866D01*
X149361904Y-97273866D02*
X149314285Y-97226247D01*
X149314285Y-97226247D02*
X149219047Y-97178628D01*
X149219047Y-97178628D02*
X149028571Y-97131009D01*
X149028571Y-97131009D02*
X148933333Y-97083390D01*
X148933333Y-97083390D02*
X148885714Y-97035771D01*
X148885714Y-97035771D02*
X148838095Y-96940533D01*
X148838095Y-96940533D02*
X148838095Y-96845295D01*
X148838095Y-96845295D02*
X148885714Y-96750057D01*
X148885714Y-96750057D02*
X148933333Y-96702438D01*
X148933333Y-96702438D02*
X149028571Y-96654819D01*
X149028571Y-96654819D02*
X149266666Y-96654819D01*
X149266666Y-96654819D02*
X149409523Y-96702438D01*
X149790476Y-96750057D02*
X149838095Y-96702438D01*
X149838095Y-96702438D02*
X149933333Y-96654819D01*
X149933333Y-96654819D02*
X150171428Y-96654819D01*
X150171428Y-96654819D02*
X150266666Y-96702438D01*
X150266666Y-96702438D02*
X150314285Y-96750057D01*
X150314285Y-96750057D02*
X150361904Y-96845295D01*
X150361904Y-96845295D02*
X150361904Y-96940533D01*
X150361904Y-96940533D02*
X150314285Y-97083390D01*
X150314285Y-97083390D02*
X149742857Y-97654819D01*
X149742857Y-97654819D02*
X150361904Y-97654819D01*
X152061905Y-94854819D02*
X152061905Y-93854819D01*
X152061905Y-93854819D02*
X152300000Y-93854819D01*
X152300000Y-93854819D02*
X152442857Y-93902438D01*
X152442857Y-93902438D02*
X152538095Y-93997676D01*
X152538095Y-93997676D02*
X152585714Y-94092914D01*
X152585714Y-94092914D02*
X152633333Y-94283390D01*
X152633333Y-94283390D02*
X152633333Y-94426247D01*
X152633333Y-94426247D02*
X152585714Y-94616723D01*
X152585714Y-94616723D02*
X152538095Y-94711961D01*
X152538095Y-94711961D02*
X152442857Y-94807200D01*
X152442857Y-94807200D02*
X152300000Y-94854819D01*
X152300000Y-94854819D02*
X152061905Y-94854819D01*
X153014286Y-93950057D02*
X153061905Y-93902438D01*
X153061905Y-93902438D02*
X153157143Y-93854819D01*
X153157143Y-93854819D02*
X153395238Y-93854819D01*
X153395238Y-93854819D02*
X153490476Y-93902438D01*
X153490476Y-93902438D02*
X153538095Y-93950057D01*
X153538095Y-93950057D02*
X153585714Y-94045295D01*
X153585714Y-94045295D02*
X153585714Y-94140533D01*
X153585714Y-94140533D02*
X153538095Y-94283390D01*
X153538095Y-94283390D02*
X152966667Y-94854819D01*
X152966667Y-94854819D02*
X153585714Y-94854819D01*
X137038095Y-97654819D02*
X137038095Y-98464342D01*
X137038095Y-98464342D02*
X137085714Y-98559580D01*
X137085714Y-98559580D02*
X137133333Y-98607200D01*
X137133333Y-98607200D02*
X137228571Y-98654819D01*
X137228571Y-98654819D02*
X137419047Y-98654819D01*
X137419047Y-98654819D02*
X137514285Y-98607200D01*
X137514285Y-98607200D02*
X137561904Y-98559580D01*
X137561904Y-98559580D02*
X137609523Y-98464342D01*
X137609523Y-98464342D02*
X137609523Y-97654819D01*
X138609523Y-98654819D02*
X138038095Y-98654819D01*
X138323809Y-98654819D02*
X138323809Y-97654819D01*
X138323809Y-97654819D02*
X138228571Y-97797676D01*
X138228571Y-97797676D02*
X138133333Y-97892914D01*
X138133333Y-97892914D02*
X138038095Y-97940533D01*
X159633333Y-94359580D02*
X159585714Y-94407200D01*
X159585714Y-94407200D02*
X159442857Y-94454819D01*
X159442857Y-94454819D02*
X159347619Y-94454819D01*
X159347619Y-94454819D02*
X159204762Y-94407200D01*
X159204762Y-94407200D02*
X159109524Y-94311961D01*
X159109524Y-94311961D02*
X159061905Y-94216723D01*
X159061905Y-94216723D02*
X159014286Y-94026247D01*
X159014286Y-94026247D02*
X159014286Y-93883390D01*
X159014286Y-93883390D02*
X159061905Y-93692914D01*
X159061905Y-93692914D02*
X159109524Y-93597676D01*
X159109524Y-93597676D02*
X159204762Y-93502438D01*
X159204762Y-93502438D02*
X159347619Y-93454819D01*
X159347619Y-93454819D02*
X159442857Y-93454819D01*
X159442857Y-93454819D02*
X159585714Y-93502438D01*
X159585714Y-93502438D02*
X159633333Y-93550057D01*
X159966667Y-93454819D02*
X160633333Y-93454819D01*
X160633333Y-93454819D02*
X160204762Y-94454819D01*
X153526905Y-87539819D02*
X153526905Y-86539819D01*
X153526905Y-86539819D02*
X153765000Y-86539819D01*
X153765000Y-86539819D02*
X153907857Y-86587438D01*
X153907857Y-86587438D02*
X154003095Y-86682676D01*
X154003095Y-86682676D02*
X154050714Y-86777914D01*
X154050714Y-86777914D02*
X154098333Y-86968390D01*
X154098333Y-86968390D02*
X154098333Y-87111247D01*
X154098333Y-87111247D02*
X154050714Y-87301723D01*
X154050714Y-87301723D02*
X154003095Y-87396961D01*
X154003095Y-87396961D02*
X153907857Y-87492200D01*
X153907857Y-87492200D02*
X153765000Y-87539819D01*
X153765000Y-87539819D02*
X153526905Y-87539819D01*
X155050714Y-87539819D02*
X154479286Y-87539819D01*
X154765000Y-87539819D02*
X154765000Y-86539819D01*
X154765000Y-86539819D02*
X154669762Y-86682676D01*
X154669762Y-86682676D02*
X154574524Y-86777914D01*
X154574524Y-86777914D02*
X154479286Y-86825533D01*
X157054819Y-98248333D02*
X157769104Y-98248333D01*
X157769104Y-98248333D02*
X157911961Y-98295952D01*
X157911961Y-98295952D02*
X158007200Y-98391190D01*
X158007200Y-98391190D02*
X158054819Y-98534047D01*
X158054819Y-98534047D02*
X158054819Y-98629285D01*
X157054819Y-97867380D02*
X157054819Y-97248333D01*
X157054819Y-97248333D02*
X157435771Y-97581666D01*
X157435771Y-97581666D02*
X157435771Y-97438809D01*
X157435771Y-97438809D02*
X157483390Y-97343571D01*
X157483390Y-97343571D02*
X157531009Y-97295952D01*
X157531009Y-97295952D02*
X157626247Y-97248333D01*
X157626247Y-97248333D02*
X157864342Y-97248333D01*
X157864342Y-97248333D02*
X157959580Y-97295952D01*
X157959580Y-97295952D02*
X158007200Y-97343571D01*
X158007200Y-97343571D02*
X158054819Y-97438809D01*
X158054819Y-97438809D02*
X158054819Y-97724523D01*
X158054819Y-97724523D02*
X158007200Y-97819761D01*
X158007200Y-97819761D02*
X157959580Y-97867380D01*
X145833333Y-95759580D02*
X145785714Y-95807200D01*
X145785714Y-95807200D02*
X145642857Y-95854819D01*
X145642857Y-95854819D02*
X145547619Y-95854819D01*
X145547619Y-95854819D02*
X145404762Y-95807200D01*
X145404762Y-95807200D02*
X145309524Y-95711961D01*
X145309524Y-95711961D02*
X145261905Y-95616723D01*
X145261905Y-95616723D02*
X145214286Y-95426247D01*
X145214286Y-95426247D02*
X145214286Y-95283390D01*
X145214286Y-95283390D02*
X145261905Y-95092914D01*
X145261905Y-95092914D02*
X145309524Y-94997676D01*
X145309524Y-94997676D02*
X145404762Y-94902438D01*
X145404762Y-94902438D02*
X145547619Y-94854819D01*
X145547619Y-94854819D02*
X145642857Y-94854819D01*
X145642857Y-94854819D02*
X145785714Y-94902438D01*
X145785714Y-94902438D02*
X145833333Y-94950057D01*
X146214286Y-94950057D02*
X146261905Y-94902438D01*
X146261905Y-94902438D02*
X146357143Y-94854819D01*
X146357143Y-94854819D02*
X146595238Y-94854819D01*
X146595238Y-94854819D02*
X146690476Y-94902438D01*
X146690476Y-94902438D02*
X146738095Y-94950057D01*
X146738095Y-94950057D02*
X146785714Y-95045295D01*
X146785714Y-95045295D02*
X146785714Y-95140533D01*
X146785714Y-95140533D02*
X146738095Y-95283390D01*
X146738095Y-95283390D02*
X146166667Y-95854819D01*
X146166667Y-95854819D02*
X146785714Y-95854819D01*
X167038095Y-93454819D02*
X167038095Y-94264342D01*
X167038095Y-94264342D02*
X167085714Y-94359580D01*
X167085714Y-94359580D02*
X167133333Y-94407200D01*
X167133333Y-94407200D02*
X167228571Y-94454819D01*
X167228571Y-94454819D02*
X167419047Y-94454819D01*
X167419047Y-94454819D02*
X167514285Y-94407200D01*
X167514285Y-94407200D02*
X167561904Y-94359580D01*
X167561904Y-94359580D02*
X167609523Y-94264342D01*
X167609523Y-94264342D02*
X167609523Y-93454819D01*
X168038095Y-93550057D02*
X168085714Y-93502438D01*
X168085714Y-93502438D02*
X168180952Y-93454819D01*
X168180952Y-93454819D02*
X168419047Y-93454819D01*
X168419047Y-93454819D02*
X168514285Y-93502438D01*
X168514285Y-93502438D02*
X168561904Y-93550057D01*
X168561904Y-93550057D02*
X168609523Y-93645295D01*
X168609523Y-93645295D02*
X168609523Y-93740533D01*
X168609523Y-93740533D02*
X168561904Y-93883390D01*
X168561904Y-93883390D02*
X167990476Y-94454819D01*
X167990476Y-94454819D02*
X168609523Y-94454819D01*
X141843628Y-92391190D02*
X142319819Y-92391190D01*
X141319819Y-92724523D02*
X141843628Y-92391190D01*
X141843628Y-92391190D02*
X141319819Y-92057857D01*
X142319819Y-91200714D02*
X142319819Y-91772142D01*
X142319819Y-91486428D02*
X141319819Y-91486428D01*
X141319819Y-91486428D02*
X141462676Y-91581666D01*
X141462676Y-91581666D02*
X141557914Y-91676904D01*
X141557914Y-91676904D02*
X141605533Y-91772142D01*
X174266666Y-98254819D02*
X174266666Y-98969104D01*
X174266666Y-98969104D02*
X174219047Y-99111961D01*
X174219047Y-99111961D02*
X174123809Y-99207200D01*
X174123809Y-99207200D02*
X173980952Y-99254819D01*
X173980952Y-99254819D02*
X173885714Y-99254819D01*
X174695238Y-98350057D02*
X174742857Y-98302438D01*
X174742857Y-98302438D02*
X174838095Y-98254819D01*
X174838095Y-98254819D02*
X175076190Y-98254819D01*
X175076190Y-98254819D02*
X175171428Y-98302438D01*
X175171428Y-98302438D02*
X175219047Y-98350057D01*
X175219047Y-98350057D02*
X175266666Y-98445295D01*
X175266666Y-98445295D02*
X175266666Y-98540533D01*
X175266666Y-98540533D02*
X175219047Y-98683390D01*
X175219047Y-98683390D02*
X174647619Y-99254819D01*
X174647619Y-99254819D02*
X175266666Y-99254819D01*
D11*
%TO.C,C5*%
X144999420Y-91405000D02*
X145280580Y-91405000D01*
X144999420Y-92425000D02*
X145280580Y-92425000D01*
%TO.C,C1*%
X148703748Y-92180000D02*
X149226252Y-92180000D01*
X148703748Y-93650000D02*
X149226252Y-93650000D01*
D12*
%TO.C,S1*%
X148747250Y-87078200D02*
G75*
G02*
X148715950Y-87078200I-15650J0D01*
G01*
X148715950Y-87078200D02*
G75*
G02*
X148747250Y-87078200I15650J0D01*
G01*
D11*
%TO.C,C3*%
X139999420Y-88405000D02*
X140280580Y-88405000D01*
X139999420Y-89425000D02*
X140280580Y-89425000D01*
%TO.C,R2\u002C3*%
X163852742Y-88392500D02*
X164327258Y-88392500D01*
X163852742Y-89437500D02*
X164327258Y-89437500D01*
%TO.C,J1*%
X167585000Y-90635000D02*
X167585000Y-88565000D01*
X168455000Y-90635000D02*
X167585000Y-90635000D01*
X175325000Y-90635000D02*
X174455000Y-90635000D01*
X175325000Y-90635000D02*
X175325000Y-88565000D01*
X170495000Y-91445000D02*
X169815000Y-91445000D01*
X170155000Y-90975000D01*
X170495000Y-91445000D01*
G36*
X170495000Y-91445000D02*
G01*
X169815000Y-91445000D01*
X170155000Y-90975000D01*
X170495000Y-91445000D01*
G37*
%TO.C,C6*%
X159703748Y-88180000D02*
X160226252Y-88180000D01*
X159703748Y-89650000D02*
X160226252Y-89650000D01*
%TO.C,R2*%
X163852742Y-90392500D02*
X164327258Y-90392500D01*
X163852742Y-91437500D02*
X164327258Y-91437500D01*
%TO.C,C4*%
X139999420Y-94405000D02*
X140280580Y-94405000D01*
X139999420Y-95425000D02*
X140280580Y-95425000D01*
%TO.C,R1*%
X155247742Y-94842500D02*
X155722258Y-94842500D01*
X155247742Y-95887500D02*
X155722258Y-95887500D01*
D12*
%TO.C,S2*%
X148747250Y-95478200D02*
G75*
G02*
X148715950Y-95478200I-15650J0D01*
G01*
X148715950Y-95478200D02*
G75*
G02*
X148747250Y-95478200I15650J0D01*
G01*
D11*
%TO.C,D2*%
X151905000Y-91435000D02*
X151905000Y-93435000D01*
X151905000Y-91435000D02*
X155915000Y-91435000D01*
X151905000Y-93435000D02*
X155915000Y-93435000D01*
%TO.C,U1*%
X120715000Y-87565000D02*
X121815000Y-87565000D01*
X120715000Y-88665000D02*
X120715000Y-87565000D01*
X120715000Y-97165000D02*
X120715000Y-98265000D01*
X120715000Y-98265000D02*
X121815000Y-98265000D01*
X135315000Y-87565000D02*
X136415000Y-87565000D01*
X135315000Y-98265000D02*
X136415000Y-98265000D01*
X136415000Y-87565000D02*
X136415000Y-88665000D01*
X136415000Y-98265000D02*
X136415000Y-97165000D01*
X125055000Y-98626000D02*
X124575000Y-98626000D01*
X124815000Y-98290000D01*
X125055000Y-98626000D01*
G36*
X125055000Y-98626000D02*
G01*
X124575000Y-98626000D01*
X124815000Y-98290000D01*
X125055000Y-98626000D01*
G37*
%TO.C,C7*%
X159703748Y-91190000D02*
X160226252Y-91190000D01*
X159703748Y-92660000D02*
X160226252Y-92660000D01*
%TO.C,D1*%
X151905000Y-88085000D02*
X151905000Y-90085000D01*
X151905000Y-88085000D02*
X155915000Y-88085000D01*
X151905000Y-90085000D02*
X155915000Y-90085000D01*
%TO.C,J3*%
X158855000Y-98975000D02*
X158855000Y-97915000D01*
X159915000Y-98975000D02*
X158855000Y-98975000D01*
X160915000Y-96855000D02*
X166975000Y-96855000D01*
X160915000Y-98975000D02*
X160915000Y-96855000D01*
X160915000Y-98975000D02*
X166975000Y-98975000D01*
X166975000Y-98975000D02*
X166975000Y-96855000D01*
%TO.C,C2*%
X144999420Y-93405000D02*
X145280580Y-93405000D01*
X144999420Y-94425000D02*
X145280580Y-94425000D01*
%TO.C,U2*%
X164777500Y-92405000D02*
X163977500Y-92405000D01*
X164777500Y-92405000D02*
X165577500Y-92405000D01*
X164777500Y-95525000D02*
X163977500Y-95525000D01*
X164777500Y-95525000D02*
X165577500Y-95525000D01*
X163477500Y-92455000D02*
X163237500Y-92125000D01*
X163717500Y-92125000D01*
X163477500Y-92455000D01*
G36*
X163477500Y-92455000D02*
G01*
X163237500Y-92125000D01*
X163717500Y-92125000D01*
X163477500Y-92455000D01*
G37*
%TO.C,Y1*%
X138965000Y-91365000D02*
X138965000Y-92465000D01*
X140815000Y-89965000D02*
X139015000Y-89965000D01*
X140865000Y-91365000D02*
X140865000Y-92465000D01*
%TO.C,J2*%
X170470000Y-97169000D02*
X170470000Y-96534000D01*
X171105000Y-97169000D02*
X170470000Y-97169000D01*
%TD*%
%LPC*%
D13*
%TO.C,C5*%
X144365000Y-91915000D03*
X145915000Y-91915000D03*
%TD*%
D14*
%TO.C,C1*%
X148015000Y-92915000D03*
X149915000Y-92915000D03*
%TD*%
D15*
%TO.C,S1*%
X147915000Y-87915000D03*
X147915000Y-89515000D03*
X143815000Y-87915000D03*
X143815000Y-89515000D03*
%TD*%
D13*
%TO.C,C3*%
X139365000Y-88915000D03*
X140915000Y-88915000D03*
%TD*%
D16*
%TO.C,R2\u002C3*%
X163265000Y-88915000D03*
X164915000Y-88915000D03*
%TD*%
D17*
%TO.C,J1*%
X170155000Y-90040000D03*
X170805000Y-90040000D03*
X171455000Y-90040000D03*
X172105000Y-90040000D03*
X172755000Y-90040000D03*
D18*
X175630000Y-87365000D03*
D19*
X175192500Y-87365000D03*
D20*
X173680000Y-90365000D03*
D21*
X171455000Y-87365000D03*
D20*
X169230000Y-90365000D03*
D19*
X167717500Y-87365000D03*
D18*
X167280000Y-87365000D03*
%TD*%
D14*
%TO.C,C6*%
X159015000Y-88915000D03*
X160915000Y-88915000D03*
%TD*%
D16*
%TO.C,R2*%
X163265000Y-90915000D03*
X164915000Y-90915000D03*
%TD*%
D13*
%TO.C,C4*%
X139365000Y-94915000D03*
X140915000Y-94915000D03*
%TD*%
D16*
%TO.C,R1*%
X154660000Y-95365000D03*
X156310000Y-95365000D03*
%TD*%
D15*
%TO.C,S2*%
X147915000Y-96315000D03*
X147915000Y-97915000D03*
X143815000Y-96315000D03*
X143815000Y-97915000D03*
%TD*%
D22*
%TO.C,D2*%
X152615000Y-92435000D03*
X155915000Y-92435000D03*
%TD*%
D23*
%TO.C,U1*%
X124815000Y-97565000D03*
X125915000Y-97565000D03*
X126715000Y-97565000D03*
X128315000Y-97565000D03*
X128715000Y-96665000D03*
X129115000Y-97565000D03*
X129515000Y-96665000D03*
X129915000Y-97565000D03*
X130315000Y-96665000D03*
X130715000Y-97565000D03*
X131115000Y-96665000D03*
X131515000Y-97565000D03*
X131915000Y-96665000D03*
X132315000Y-97565000D03*
D24*
X135715000Y-97715000D03*
X135715000Y-96915000D03*
X135715000Y-96115000D03*
X135715000Y-95315000D03*
X134815000Y-94915000D03*
X135715000Y-94515000D03*
X134815000Y-94115000D03*
X135715000Y-93715000D03*
X134815000Y-93315000D03*
X135715000Y-92915000D03*
X134815000Y-92515000D03*
X135715000Y-92115000D03*
X134815000Y-91715000D03*
X135715000Y-91315000D03*
X134815000Y-90915000D03*
X135715000Y-90515000D03*
X135715000Y-89715000D03*
X135715000Y-88915000D03*
X135715000Y-88115000D03*
D23*
X134715000Y-88265000D03*
X133915000Y-88265000D03*
X133515000Y-89165000D03*
X133115000Y-88265000D03*
X132715000Y-89165000D03*
X132315000Y-88265000D03*
X131915000Y-89165000D03*
X131515000Y-88265000D03*
X131115000Y-89165000D03*
X130315000Y-89165000D03*
X129915000Y-88265000D03*
X129515000Y-89165000D03*
X129115000Y-88265000D03*
X128715000Y-89165000D03*
X128315000Y-88265000D03*
X127915000Y-89165000D03*
X127115000Y-89165000D03*
X126715000Y-88265000D03*
X126315000Y-89165000D03*
X125915000Y-88265000D03*
X125515000Y-89165000D03*
X124815000Y-88265000D03*
D24*
X129115000Y-94915000D03*
X129115000Y-94115000D03*
X129115000Y-93315000D03*
X129115000Y-92515000D03*
X129115000Y-91715000D03*
X129115000Y-90915000D03*
%TD*%
D14*
%TO.C,C7*%
X159015000Y-91925000D03*
X160915000Y-91925000D03*
%TD*%
D22*
%TO.C,D1*%
X152615000Y-89085000D03*
X155915000Y-89085000D03*
%TD*%
D25*
%TO.C,J3*%
X159915000Y-97915000D03*
D26*
X161915000Y-97915000D03*
X163915000Y-97915000D03*
X165915000Y-97915000D03*
%TD*%
D13*
%TO.C,C2*%
X144365000Y-93915000D03*
X145915000Y-93915000D03*
%TD*%
D27*
%TO.C,U2*%
X163640000Y-93015000D03*
X163640000Y-93965000D03*
X163640000Y-94915000D03*
X165915000Y-94915000D03*
X165915000Y-93015000D03*
%TD*%
D28*
%TO.C,Y1*%
X139915000Y-90665000D03*
X139915000Y-93165000D03*
%TD*%
D29*
%TO.C,J2*%
X169835000Y-95899000D03*
X174915000Y-94883000D03*
X174915000Y-96915000D03*
D30*
X171105000Y-96534000D03*
X171105000Y-95264000D03*
X172375000Y-96534000D03*
X172375000Y-95264000D03*
X173645000Y-96534000D03*
X173645000Y-95264000D03*
%TD*%
%LPD*%
M02*
