%TF.GenerationSoftware,KiCad,Pcbnew,8.0.9*%
%TF.CreationDate,2025-04-21T13:45:24-07:00*%
%TF.ProjectId,bmbbmcp,626d6262-6d63-4702-9e6b-696361645f70,R1*%
%TF.SameCoordinates,Original*%
%TF.FileFunction,Soldermask,Top*%
%TF.FilePolarity,Negative*%
%FSLAX46Y46*%
G04 Gerber Fmt 4.6, Leading zero omitted, Abs format (unit mm)*
G04 Created by KiCad (PCBNEW 8.0.9) date 2025-04-21 13:45:24*
%MOMM*%
%LPD*%
G01*
G04 APERTURE LIST*
G04 Aperture macros list*
%AMRoundRect*
0 Rectangle with rounded corners*
0 $1 Rounding radius*
0 $2 $3 $4 $5 $6 $7 $8 $9 X,Y pos of 4 corners*
0 Add a 4 corners polygon primitive as box body*
4,1,4,$2,$3,$4,$5,$6,$7,$8,$9,$2,$3,0*
0 Add four circle primitives for the rounded corners*
1,1,$1+$1,$2,$3*
1,1,$1+$1,$4,$5*
1,1,$1+$1,$6,$7*
1,1,$1+$1,$8,$9*
0 Add four rect primitives between the rounded corners*
20,1,$1+$1,$2,$3,$4,$5,0*
20,1,$1+$1,$4,$5,$6,$7,0*
20,1,$1+$1,$6,$7,$8,$9,0*
20,1,$1+$1,$8,$9,$2,$3,0*%
%AMFreePoly0*
4,1,19,0.500000,-0.750000,0.000000,-0.750000,0.000000,-0.744911,-0.071157,-0.744911,-0.207708,-0.704816,-0.327430,-0.627875,-0.420627,-0.520320,-0.479746,-0.390866,-0.500000,-0.250000,-0.500000,0.250000,-0.479746,0.390866,-0.420627,0.520320,-0.327430,0.627875,-0.207708,0.704816,-0.071157,0.744911,0.000000,0.744911,0.000000,0.750000,0.500000,0.750000,0.500000,-0.750000,0.500000,-0.750000,
$1*%
%AMFreePoly1*
4,1,19,0.000000,0.744911,0.071157,0.744911,0.207708,0.704816,0.327430,0.627875,0.420627,0.520320,0.479746,0.390866,0.500000,0.250000,0.500000,-0.250000,0.479746,-0.390866,0.420627,-0.520320,0.327430,-0.627875,0.207708,-0.704816,0.071157,-0.744911,0.000000,-0.744911,0.000000,-0.750000,-0.500000,-0.750000,-0.500000,0.750000,0.000000,0.750000,0.000000,0.744911,0.000000,0.744911,
$1*%
G04 Aperture macros list end*
%ADD10RoundRect,0.225000X-0.225000X-0.250000X0.225000X-0.250000X0.225000X0.250000X-0.225000X0.250000X0*%
%ADD11RoundRect,0.250000X-0.250000X-0.475000X0.250000X-0.475000X0.250000X0.475000X-0.250000X0.475000X0*%
%ADD12R,2.300000X2.300000*%
%ADD13C,2.300000*%
%ADD14RoundRect,0.102000X-0.450000X-0.500000X0.450000X-0.500000X0.450000X0.500000X-0.450000X0.500000X0*%
%ADD15RoundRect,0.225000X0.250000X-0.225000X0.250000X0.225000X-0.250000X0.225000X-0.250000X-0.225000X0*%
%ADD16RoundRect,0.200000X-0.275000X0.200000X-0.275000X-0.200000X0.275000X-0.200000X0.275000X0.200000X0*%
%ADD17R,1.100000X0.850000*%
%ADD18R,1.100000X0.750000*%
%ADD19R,1.000000X1.200000*%
%ADD20R,1.350000X1.550000*%
%ADD21R,1.350000X1.900000*%
%ADD22R,1.800000X1.170000*%
%ADD23RoundRect,0.100000X-0.100000X-0.575000X0.100000X-0.575000X0.100000X0.575000X-0.100000X0.575000X0*%
%ADD24O,1.000000X1.900000*%
%ADD25R,0.875000X1.900000*%
%ADD26O,1.050000X1.250000*%
%ADD27RoundRect,0.250000X-1.200000X-0.700000X1.200000X-0.700000X1.200000X0.700000X-1.200000X0.700000X0*%
%ADD28FreePoly0,180.000000*%
%ADD29FreePoly1,180.000000*%
%ADD30R,0.499999X0.249999*%
%ADD31R,0.900001X2.000001*%
%ADD32C,0.499999*%
%ADD33RoundRect,0.218750X0.218750X0.381250X-0.218750X0.381250X-0.218750X-0.381250X0.218750X-0.381250X0*%
%ADD34RoundRect,0.200000X-0.200000X-0.275000X0.200000X-0.275000X0.200000X0.275000X-0.200000X0.275000X0*%
%ADD35RoundRect,0.225000X-0.225000X-0.375000X0.225000X-0.375000X0.225000X0.375000X-0.225000X0.375000X0*%
%ADD36R,1.700000X1.700000*%
%ADD37O,1.700000X1.700000*%
%ADD38R,0.400000X0.600000*%
%ADD39R,0.600000X0.400000*%
%ADD40RoundRect,0.150000X-0.512500X-0.150000X0.512500X-0.150000X0.512500X0.150000X-0.512500X0.150000X0*%
%ADD41R,1.000000X1.800000*%
%ADD42C,0.990600*%
%ADD43C,0.787400*%
%ADD44RoundRect,0.062500X0.350000X0.062500X-0.350000X0.062500X-0.350000X-0.062500X0.350000X-0.062500X0*%
%ADD45RoundRect,0.062500X0.062500X0.350000X-0.062500X0.350000X-0.062500X-0.350000X0.062500X-0.350000X0*%
%ADD46R,1.230000X1.230000*%
G04 APERTURE END LIST*
D10*
%TO.C,C5*%
X138200000Y-93000000D03*
X139750000Y-93000000D03*
%TD*%
D11*
%TO.C,C1*%
X138100000Y-90600000D03*
X140000000Y-90600000D03*
%TD*%
D12*
%TO.C,J5*%
X166300000Y-84000000D03*
D13*
X169800000Y-84000000D03*
%TD*%
D11*
%TO.C,C9*%
X165450000Y-100810000D03*
X167350000Y-100810000D03*
%TD*%
D14*
%TO.C,S1*%
X133850000Y-82200000D03*
X133850000Y-83800000D03*
X129750000Y-82200000D03*
X129750000Y-83800000D03*
%TD*%
D15*
%TO.C,C3*%
X139000000Y-101950000D03*
X139000000Y-100400000D03*
%TD*%
D16*
%TO.C,R3*%
X127340000Y-99580000D03*
X127340000Y-101230000D03*
%TD*%
D17*
%TO.C,J4*%
X185350000Y-90435000D03*
X185350000Y-91535000D03*
X185350000Y-92635000D03*
X185350000Y-93735000D03*
X185350000Y-94835000D03*
X185350000Y-95935000D03*
X185350000Y-97035000D03*
D18*
X185350000Y-98085000D03*
D19*
X179200000Y-87800000D03*
X175500000Y-87800000D03*
D20*
X185225000Y-87975000D03*
D21*
X174525000Y-91300000D03*
X174525000Y-97270000D03*
D22*
X185000000Y-99295000D03*
%TD*%
D23*
%TO.C,J1*%
X126095000Y-103875000D03*
X125445000Y-103875000D03*
X124795000Y-103875000D03*
X124145000Y-103875000D03*
X123495000Y-103875000D03*
D24*
X120620000Y-106550000D03*
D25*
X121057500Y-106550000D03*
D26*
X122570000Y-103550000D03*
D27*
X124795000Y-106550000D03*
D26*
X127020000Y-103550000D03*
D25*
X128532500Y-106550000D03*
D24*
X128970000Y-106550000D03*
%TD*%
D11*
%TO.C,C6*%
X150200000Y-91990000D03*
X152100000Y-91990000D03*
%TD*%
D28*
%TO.C,JP1*%
X170800000Y-89800000D03*
D29*
X169500000Y-89800000D03*
%TD*%
D16*
%TO.C,R2*%
X125740000Y-99605000D03*
X125740000Y-101255000D03*
%TD*%
D11*
%TO.C,C8*%
X165450000Y-97800000D03*
X167350000Y-97800000D03*
%TD*%
D30*
%TO.C,U4*%
X157600000Y-99000000D03*
X157600000Y-98499998D03*
X157600000Y-98000000D03*
X157600000Y-97500000D03*
X157600000Y-96999999D03*
X157600000Y-96500000D03*
X155700001Y-96500000D03*
X155700001Y-96999999D03*
X155700001Y-97500000D03*
X155700001Y-98000000D03*
X155700001Y-98499998D03*
X155700001Y-99000000D03*
D31*
X156649999Y-97750000D03*
D32*
X156650002Y-98500001D03*
X156650002Y-97750000D03*
X156650002Y-96999999D03*
%TD*%
D33*
%TO.C,FB2*%
X163925000Y-93000000D03*
X161800000Y-93000000D03*
%TD*%
%TO.C,FB1*%
X163862500Y-91000000D03*
X161737500Y-91000000D03*
%TD*%
D12*
%TO.C,J7*%
X147500000Y-84000000D03*
D13*
X151000000Y-84000000D03*
%TD*%
D11*
%TO.C,C10*%
X159675000Y-96800000D03*
X161575000Y-96800000D03*
%TD*%
D15*
%TO.C,C4*%
X132400000Y-101975000D03*
X132400000Y-100425000D03*
%TD*%
D34*
%TO.C,R1*%
X144315000Y-98440000D03*
X145965000Y-98440000D03*
%TD*%
D14*
%TO.C,S2*%
X142050000Y-82200000D03*
X142050000Y-83800000D03*
X137950000Y-82200000D03*
X137950000Y-83800000D03*
%TD*%
D35*
%TO.C,D2*%
X144405000Y-95510000D03*
X147705000Y-95510000D03*
%TD*%
D36*
%TO.C,J3*%
X159520000Y-104600000D03*
D37*
X162060000Y-104600000D03*
X164600000Y-104600000D03*
%TD*%
D38*
%TO.C,U1*%
X124815000Y-97565000D03*
X125915000Y-97565000D03*
X126715000Y-97565000D03*
X128315000Y-97565000D03*
X128715000Y-96665000D03*
X129115000Y-97565000D03*
X129515000Y-96665000D03*
X129915000Y-97565000D03*
X130315000Y-96665000D03*
X130715000Y-97565000D03*
X131115000Y-96665000D03*
X131515000Y-97565000D03*
X131915000Y-96665000D03*
X132315000Y-97565000D03*
D39*
X135715000Y-97715000D03*
X135715000Y-96915000D03*
X135715000Y-96115000D03*
X135715000Y-95315000D03*
X134815000Y-94915000D03*
X135715000Y-94515000D03*
X134815000Y-94115000D03*
X135715000Y-93715000D03*
X134815000Y-93315000D03*
X135715000Y-92915000D03*
X134815000Y-92515000D03*
X135715000Y-92115000D03*
X134815000Y-91715000D03*
X135715000Y-91315000D03*
X134815000Y-90915000D03*
X135715000Y-90515000D03*
X135715000Y-89715000D03*
X135715000Y-88915000D03*
X135715000Y-88115000D03*
D38*
X134715000Y-88265000D03*
X133915000Y-88265000D03*
X133515000Y-89165000D03*
X133115000Y-88265000D03*
X132715000Y-89165000D03*
X132315000Y-88265000D03*
X131915000Y-89165000D03*
X131515000Y-88265000D03*
X131115000Y-89165000D03*
X130315000Y-89165000D03*
X129915000Y-88265000D03*
X129515000Y-89165000D03*
X129115000Y-88265000D03*
X128715000Y-89165000D03*
X128315000Y-88265000D03*
X127915000Y-89165000D03*
X127115000Y-89165000D03*
X126715000Y-88265000D03*
X126315000Y-89165000D03*
X125915000Y-88265000D03*
X125515000Y-89165000D03*
X124815000Y-88265000D03*
D39*
X129115000Y-94915000D03*
X129115000Y-94115000D03*
X129115000Y-93315000D03*
X129115000Y-92515000D03*
X129115000Y-91715000D03*
X129115000Y-90915000D03*
%TD*%
D11*
%TO.C,C7*%
X150200000Y-95000000D03*
X152100000Y-95000000D03*
%TD*%
D35*
%TO.C,D1*%
X144405000Y-92160000D03*
X147705000Y-92160000D03*
%TD*%
D10*
%TO.C,C2*%
X138250000Y-94800000D03*
X139800000Y-94800000D03*
%TD*%
D12*
%TO.C,J6*%
X155900000Y-84000000D03*
D13*
X159400000Y-84000000D03*
%TD*%
D40*
%TO.C,U2*%
X150362500Y-97955000D03*
X150362500Y-98905000D03*
X150362500Y-99855000D03*
X152637500Y-99855000D03*
X152637500Y-97955000D03*
%TD*%
D41*
%TO.C,Y1*%
X137000000Y-101400000D03*
X134500000Y-101400000D03*
%TD*%
D42*
%TO.C,J2*%
X127670000Y-83235000D03*
X122590000Y-84251000D03*
X122590000Y-82219000D03*
D43*
X126400000Y-82600000D03*
X126400000Y-83870000D03*
X125130000Y-82600000D03*
X125130000Y-83870000D03*
X123860000Y-82600000D03*
X123860000Y-83870000D03*
%TD*%
D44*
%TO.C,U3*%
X169200000Y-94700000D03*
X169200000Y-94200000D03*
X169200000Y-93700000D03*
X169200000Y-93200000D03*
D45*
X168512500Y-92512500D03*
X168012500Y-92512500D03*
X167512500Y-92512500D03*
X167012500Y-92512500D03*
D44*
X166325000Y-93200000D03*
X166325000Y-93700000D03*
X166325000Y-94200000D03*
X166325000Y-94700000D03*
D45*
X167012500Y-95387500D03*
X167512500Y-95387500D03*
X168012500Y-95387500D03*
X168512500Y-95387500D03*
D46*
X167762500Y-93950000D03*
%TD*%
D10*
%TO.C,C11*%
X159825000Y-99400000D03*
X161375000Y-99400000D03*
%TD*%
M02*
