%TF.GenerationSoftware,KiCad,Pcbnew,8.0.9*%
%TF.CreationDate,2025-04-21T13:45:24-07:00*%
%TF.ProjectId,bmbbmcp,626d6262-6d63-4702-9e6b-696361645f70,R1*%
%TF.SameCoordinates,Original*%
%TF.FileFunction,Copper,L2,Inr*%
%TF.FilePolarity,Positive*%
%FSLAX46Y46*%
G04 Gerber Fmt 4.6, Leading zero omitted, Abs format (unit mm)*
G04 Created by KiCad (PCBNEW 8.0.9) date 2025-04-21 13:45:24*
%MOMM*%
%LPD*%
G01*
G04 APERTURE LIST*
%TA.AperFunction,ComponentPad*%
%ADD10R,2.300000X2.300000*%
%TD*%
%TA.AperFunction,ComponentPad*%
%ADD11C,2.300000*%
%TD*%
%TA.AperFunction,HeatsinkPad*%
%ADD12O,1.000000X1.900000*%
%TD*%
%TA.AperFunction,HeatsinkPad*%
%ADD13O,1.050000X1.250000*%
%TD*%
%TA.AperFunction,ComponentPad*%
%ADD14C,0.499999*%
%TD*%
%TA.AperFunction,ComponentPad*%
%ADD15R,1.700000X1.700000*%
%TD*%
%TA.AperFunction,ComponentPad*%
%ADD16O,1.700000X1.700000*%
%TD*%
%TA.AperFunction,ViaPad*%
%ADD17C,0.600000*%
%TD*%
G04 APERTURE END LIST*
D10*
%TO.N,Net-(J5-Pin_1)*%
%TO.C,J5*%
X166300000Y-84000000D03*
D11*
%TO.N,Net-(J5-Pin_2)*%
X169800000Y-84000000D03*
%TD*%
D12*
%TO.N,unconnected-(J1-Shield-Pad6)_5*%
%TO.C,J1*%
X120620000Y-106550000D03*
D13*
%TO.N,unconnected-(J1-Shield-Pad6)_1*%
X122570000Y-103550000D03*
%TO.N,unconnected-(J1-Shield-Pad6)_2*%
X127020000Y-103550000D03*
D12*
%TO.N,unconnected-(J1-Shield-Pad6)*%
X128970000Y-106550000D03*
%TD*%
D14*
%TO.N,GND*%
%TO.C,U4*%
X156650002Y-98500001D03*
X156650002Y-97750000D03*
X156650002Y-96999999D03*
%TD*%
D10*
%TO.N,Net-(J7-Pin_1)*%
%TO.C,J7*%
X147500000Y-84000000D03*
D11*
%TO.N,Net-(J7-Pin_2)*%
X151000000Y-84000000D03*
%TD*%
D15*
%TO.N,+BATT*%
%TO.C,J3*%
X159520000Y-104600000D03*
D16*
%TO.N,GND*%
X162060000Y-104600000D03*
%TO.N,/BTN1*%
X164600000Y-104600000D03*
%TD*%
D10*
%TO.N,Net-(J6-Pin_1)*%
%TO.C,J6*%
X155900000Y-84000000D03*
D11*
%TO.N,Net-(J6-Pin_2)*%
X159400000Y-84000000D03*
%TD*%
D17*
%TO.N,+3.3V*%
X128400000Y-84400000D03*
X183200000Y-89200000D03*
X137200000Y-85000000D03*
X139200000Y-88800000D03*
X150200000Y-90400000D03*
X167000000Y-90800000D03*
%TO.N,GND*%
X123600000Y-100600000D03*
X123000000Y-86000000D03*
X157600000Y-95800000D03*
X137200000Y-88000000D03*
X134400000Y-98400000D03*
X153600000Y-95000000D03*
X161600000Y-98200000D03*
X123000000Y-81000000D03*
X140000000Y-82200000D03*
X184000000Y-96000000D03*
X148600000Y-98600000D03*
X132400000Y-103200000D03*
X141200000Y-93200000D03*
X139000000Y-103200000D03*
X165400000Y-94250000D03*
X170250000Y-91800000D03*
X131800000Y-82200000D03*
X167550000Y-99210000D03*
%TO.N,VBUS*%
X137200000Y-89000000D03*
X147600000Y-90400000D03*
%TO.N,+BATT*%
X159800000Y-101000000D03*
X148800000Y-101400000D03*
%TO.N,Net-(U2-EN)*%
X146000000Y-99600000D03*
X148800000Y-99600000D03*
%TO.N,/SWITCH*%
X141000000Y-99200000D03*
X130800000Y-99200000D03*
%TO.N,/SPI_MOSI*%
X181200000Y-86200000D03*
X132600000Y-86200000D03*
%TO.N,/SPI_SCLK*%
X180400000Y-86800000D03*
X133400000Y-86800000D03*
%TO.N,/SPI_CS1*%
X127200000Y-85600000D03*
X182000000Y-85600000D03*
%TO.N,/SPI_MISO*%
X177600000Y-87600000D03*
X130400000Y-87400000D03*
%TO.N,/MOTOR_B1*%
X133200000Y-96800000D03*
X155800000Y-94800000D03*
%TO.N,/MOTOR_B2*%
X130800000Y-96015000D03*
X157200000Y-94400000D03*
%TO.N,/MOTOR_A2*%
X132000000Y-95600000D03*
X154800000Y-95000000D03*
%TO.N,/I2S_MODE*%
X169400000Y-91400000D03*
X131600000Y-91400000D03*
%TO.N,/MOTOR_CTRL*%
X128200000Y-94200000D03*
X154000000Y-98400000D03*
%TO.N,/I2S_LRCK*%
X167000000Y-96400000D03*
X132400000Y-92000000D03*
%TO.N,/MOTOR_A1*%
X154200000Y-97400000D03*
X133000000Y-98400000D03*
%TO.N,/I2S_DOUT*%
X133200000Y-94000000D03*
X170000000Y-97400000D03*
%TO.N,/I2S_SCK*%
X169000000Y-96600000D03*
X133400000Y-92600000D03*
%TD*%
%TA.AperFunction,Conductor*%
%TO.N,GND*%
G36*
X185943039Y-81019685D02*
G01*
X185988794Y-81072489D01*
X186000000Y-81124000D01*
X186000000Y-106876000D01*
X185980315Y-106943039D01*
X185927511Y-106988794D01*
X185876000Y-107000000D01*
X130094500Y-107000000D01*
X130027461Y-106980315D01*
X129981706Y-106927511D01*
X129970500Y-106876000D01*
X129970500Y-106001456D01*
X129932052Y-105808170D01*
X129932051Y-105808169D01*
X129932051Y-105808165D01*
X129920438Y-105780128D01*
X129856635Y-105626092D01*
X129856628Y-105626079D01*
X129747139Y-105462218D01*
X129747136Y-105462214D01*
X129607785Y-105322863D01*
X129607781Y-105322860D01*
X129443920Y-105213371D01*
X129443907Y-105213364D01*
X129261839Y-105137950D01*
X129261829Y-105137947D01*
X129068543Y-105099500D01*
X129068541Y-105099500D01*
X128871459Y-105099500D01*
X128871457Y-105099500D01*
X128678170Y-105137947D01*
X128678160Y-105137950D01*
X128496092Y-105213364D01*
X128496079Y-105213371D01*
X128332218Y-105322860D01*
X128332214Y-105322863D01*
X128192863Y-105462214D01*
X128192860Y-105462218D01*
X128083371Y-105626079D01*
X128083366Y-105626088D01*
X128036225Y-105739899D01*
X127992384Y-105794302D01*
X127926090Y-105816367D01*
X127858391Y-105799088D01*
X127833983Y-105780127D01*
X127759975Y-105706119D01*
X127759967Y-105706113D01*
X127608391Y-105604833D01*
X127608387Y-105604831D01*
X127439962Y-105535068D01*
X127439952Y-105535065D01*
X127261156Y-105499500D01*
X127261154Y-105499500D01*
X127078846Y-105499500D01*
X127078844Y-105499500D01*
X126900047Y-105535065D01*
X126900037Y-105535068D01*
X126731612Y-105604831D01*
X126731608Y-105604833D01*
X126580032Y-105706113D01*
X126580024Y-105706119D01*
X126451119Y-105835024D01*
X126451113Y-105835032D01*
X126349833Y-105986608D01*
X126349831Y-105986612D01*
X126280068Y-106155037D01*
X126280065Y-106155047D01*
X126244500Y-106333843D01*
X126244500Y-106876000D01*
X126224815Y-106943039D01*
X126172011Y-106988794D01*
X126120500Y-107000000D01*
X123469500Y-107000000D01*
X123402461Y-106980315D01*
X123356706Y-106927511D01*
X123345500Y-106876000D01*
X123345500Y-106333843D01*
X123309934Y-106155047D01*
X123309933Y-106155046D01*
X123309933Y-106155042D01*
X123309931Y-106155037D01*
X123240168Y-105986612D01*
X123240166Y-105986608D01*
X123138886Y-105835032D01*
X123138880Y-105835024D01*
X123009975Y-105706119D01*
X123009967Y-105706113D01*
X122858391Y-105604833D01*
X122858387Y-105604831D01*
X122689962Y-105535068D01*
X122689952Y-105535065D01*
X122511156Y-105499500D01*
X122511154Y-105499500D01*
X122328846Y-105499500D01*
X122328844Y-105499500D01*
X122150047Y-105535065D01*
X122150037Y-105535068D01*
X121981612Y-105604831D01*
X121981608Y-105604833D01*
X121830032Y-105706113D01*
X121830029Y-105706115D01*
X121756016Y-105780128D01*
X121694692Y-105813612D01*
X121625001Y-105808627D01*
X121569067Y-105766756D01*
X121553774Y-105739898D01*
X121506635Y-105626091D01*
X121506628Y-105626079D01*
X121397139Y-105462218D01*
X121397136Y-105462214D01*
X121257785Y-105322863D01*
X121257781Y-105322860D01*
X121093920Y-105213371D01*
X121093907Y-105213364D01*
X120911839Y-105137950D01*
X120911829Y-105137947D01*
X120718543Y-105099500D01*
X120718541Y-105099500D01*
X120521459Y-105099500D01*
X120521457Y-105099500D01*
X120328170Y-105137947D01*
X120328160Y-105137950D01*
X120171452Y-105202860D01*
X120101982Y-105210329D01*
X120039503Y-105179053D01*
X120003852Y-105118964D01*
X120000000Y-105088299D01*
X120000000Y-103348992D01*
X121544500Y-103348992D01*
X121544500Y-103751007D01*
X121583907Y-103949119D01*
X121583909Y-103949127D01*
X121661212Y-104135752D01*
X121661217Y-104135762D01*
X121773441Y-104303718D01*
X121916281Y-104446558D01*
X122084237Y-104558782D01*
X122084241Y-104558784D01*
X122084244Y-104558786D01*
X122270873Y-104636091D01*
X122468992Y-104675499D01*
X122468996Y-104675500D01*
X122468997Y-104675500D01*
X122671004Y-104675500D01*
X122671005Y-104675499D01*
X122869127Y-104636091D01*
X123055756Y-104558786D01*
X123223718Y-104446558D01*
X123366558Y-104303718D01*
X123478786Y-104135756D01*
X123556091Y-103949127D01*
X123595500Y-103751003D01*
X123595500Y-103348997D01*
X123595499Y-103348992D01*
X125994500Y-103348992D01*
X125994500Y-103751007D01*
X126033907Y-103949119D01*
X126033909Y-103949127D01*
X126111212Y-104135752D01*
X126111217Y-104135762D01*
X126223441Y-104303718D01*
X126366281Y-104446558D01*
X126534237Y-104558782D01*
X126534241Y-104558784D01*
X126534244Y-104558786D01*
X126720873Y-104636091D01*
X126918992Y-104675499D01*
X126918996Y-104675500D01*
X126918997Y-104675500D01*
X127121004Y-104675500D01*
X127121005Y-104675499D01*
X127319127Y-104636091D01*
X127505756Y-104558786D01*
X127673718Y-104446558D01*
X127816558Y-104303718D01*
X127928786Y-104135756D01*
X128006091Y-103949127D01*
X128045500Y-103751003D01*
X128045500Y-103702135D01*
X158169500Y-103702135D01*
X158169500Y-105497870D01*
X158169501Y-105497876D01*
X158175908Y-105557483D01*
X158226202Y-105692328D01*
X158226206Y-105692335D01*
X158312452Y-105807544D01*
X158312455Y-105807547D01*
X158427664Y-105893793D01*
X158427671Y-105893797D01*
X158562517Y-105944091D01*
X158562516Y-105944091D01*
X158569444Y-105944835D01*
X158622127Y-105950500D01*
X160417872Y-105950499D01*
X160477483Y-105944091D01*
X160612331Y-105893796D01*
X160727546Y-105807546D01*
X160813796Y-105692331D01*
X160863002Y-105560401D01*
X160904872Y-105504468D01*
X160970337Y-105480050D01*
X161038610Y-105494901D01*
X161066865Y-105516053D01*
X161188917Y-105638105D01*
X161382421Y-105773600D01*
X161596507Y-105873429D01*
X161596516Y-105873433D01*
X161810000Y-105930634D01*
X161810000Y-105033012D01*
X161867007Y-105065925D01*
X161994174Y-105100000D01*
X162125826Y-105100000D01*
X162252993Y-105065925D01*
X162310000Y-105033012D01*
X162310000Y-105930633D01*
X162523483Y-105873433D01*
X162523492Y-105873429D01*
X162737578Y-105773600D01*
X162931082Y-105638105D01*
X163098105Y-105471082D01*
X163228119Y-105285405D01*
X163282696Y-105241781D01*
X163352195Y-105234588D01*
X163414549Y-105266110D01*
X163431269Y-105285405D01*
X163561505Y-105471401D01*
X163728599Y-105638495D01*
X163825167Y-105706113D01*
X163922165Y-105774032D01*
X163922167Y-105774033D01*
X163922170Y-105774035D01*
X164136337Y-105873903D01*
X164364592Y-105935063D01*
X164541034Y-105950500D01*
X164599999Y-105955659D01*
X164600000Y-105955659D01*
X164600001Y-105955659D01*
X164658966Y-105950500D01*
X164835408Y-105935063D01*
X165063663Y-105873903D01*
X165277830Y-105774035D01*
X165471401Y-105638495D01*
X165638495Y-105471401D01*
X165774035Y-105277830D01*
X165873903Y-105063663D01*
X165935063Y-104835408D01*
X165955659Y-104600000D01*
X165935063Y-104364592D01*
X165873903Y-104136337D01*
X165774035Y-103922171D01*
X165768731Y-103914595D01*
X165638494Y-103728597D01*
X165471402Y-103561506D01*
X165471395Y-103561501D01*
X165277834Y-103425967D01*
X165277830Y-103425965D01*
X165277828Y-103425964D01*
X165063663Y-103326097D01*
X165063659Y-103326096D01*
X165063655Y-103326094D01*
X164835413Y-103264938D01*
X164835403Y-103264936D01*
X164600001Y-103244341D01*
X164599999Y-103244341D01*
X164364596Y-103264936D01*
X164364586Y-103264938D01*
X164136344Y-103326094D01*
X164136335Y-103326098D01*
X163922171Y-103425964D01*
X163922169Y-103425965D01*
X163728597Y-103561505D01*
X163561508Y-103728594D01*
X163431269Y-103914595D01*
X163376692Y-103958219D01*
X163307193Y-103965412D01*
X163244839Y-103933890D01*
X163228119Y-103914594D01*
X163098113Y-103728926D01*
X163098108Y-103728920D01*
X162931082Y-103561894D01*
X162737578Y-103426399D01*
X162523492Y-103326570D01*
X162523486Y-103326567D01*
X162310000Y-103269364D01*
X162310000Y-104166988D01*
X162252993Y-104134075D01*
X162125826Y-104100000D01*
X161994174Y-104100000D01*
X161867007Y-104134075D01*
X161810000Y-104166988D01*
X161810000Y-103269364D01*
X161809999Y-103269364D01*
X161596513Y-103326567D01*
X161596507Y-103326570D01*
X161382422Y-103426399D01*
X161382420Y-103426400D01*
X161188926Y-103561886D01*
X161066865Y-103683947D01*
X161005542Y-103717431D01*
X160935850Y-103712447D01*
X160879917Y-103670575D01*
X160863002Y-103639598D01*
X160813797Y-103507671D01*
X160813793Y-103507664D01*
X160727547Y-103392455D01*
X160727544Y-103392452D01*
X160612335Y-103306206D01*
X160612328Y-103306202D01*
X160477482Y-103255908D01*
X160477483Y-103255908D01*
X160417883Y-103249501D01*
X160417881Y-103249500D01*
X160417873Y-103249500D01*
X160417864Y-103249500D01*
X158622129Y-103249500D01*
X158622123Y-103249501D01*
X158562516Y-103255908D01*
X158427671Y-103306202D01*
X158427664Y-103306206D01*
X158312455Y-103392452D01*
X158312452Y-103392455D01*
X158226206Y-103507664D01*
X158226202Y-103507671D01*
X158175908Y-103642517D01*
X158169501Y-103702116D01*
X158169500Y-103702135D01*
X128045500Y-103702135D01*
X128045500Y-103348997D01*
X128006091Y-103150873D01*
X127928786Y-102964244D01*
X127928784Y-102964241D01*
X127928782Y-102964237D01*
X127816558Y-102796281D01*
X127673718Y-102653441D01*
X127505762Y-102541217D01*
X127505752Y-102541212D01*
X127319127Y-102463909D01*
X127319119Y-102463907D01*
X127121007Y-102424500D01*
X127121003Y-102424500D01*
X126918997Y-102424500D01*
X126918992Y-102424500D01*
X126720880Y-102463907D01*
X126720872Y-102463909D01*
X126534247Y-102541212D01*
X126534237Y-102541217D01*
X126366281Y-102653441D01*
X126223441Y-102796281D01*
X126111217Y-102964237D01*
X126111212Y-102964247D01*
X126033909Y-103150872D01*
X126033907Y-103150880D01*
X125994500Y-103348992D01*
X123595499Y-103348992D01*
X123556091Y-103150873D01*
X123478786Y-102964244D01*
X123478784Y-102964241D01*
X123478782Y-102964237D01*
X123366558Y-102796281D01*
X123223718Y-102653441D01*
X123055762Y-102541217D01*
X123055752Y-102541212D01*
X122869127Y-102463909D01*
X122869119Y-102463907D01*
X122671007Y-102424500D01*
X122671003Y-102424500D01*
X122468997Y-102424500D01*
X122468992Y-102424500D01*
X122270880Y-102463907D01*
X122270872Y-102463909D01*
X122084247Y-102541212D01*
X122084237Y-102541217D01*
X121916281Y-102653441D01*
X121773441Y-102796281D01*
X121661217Y-102964237D01*
X121661212Y-102964247D01*
X121583909Y-103150872D01*
X121583907Y-103150880D01*
X121544500Y-103348992D01*
X120000000Y-103348992D01*
X120000000Y-100124000D01*
X120019685Y-100056961D01*
X120072489Y-100011206D01*
X120124000Y-100000000D01*
X125000000Y-100000000D01*
X125000000Y-99199996D01*
X129994435Y-99199996D01*
X129994435Y-99200003D01*
X130014630Y-99379249D01*
X130014631Y-99379254D01*
X130074211Y-99549523D01*
X130105926Y-99599996D01*
X130170184Y-99702262D01*
X130297738Y-99829816D01*
X130450478Y-99925789D01*
X130518306Y-99949523D01*
X130620745Y-99985368D01*
X130620750Y-99985369D01*
X130799996Y-100005565D01*
X130800000Y-100005565D01*
X130800004Y-100005565D01*
X130979249Y-99985369D01*
X130979252Y-99985368D01*
X130979255Y-99985368D01*
X131149522Y-99925789D01*
X131302262Y-99829816D01*
X131429816Y-99702262D01*
X131525789Y-99549522D01*
X131585368Y-99379255D01*
X131605565Y-99200000D01*
X131603916Y-99185369D01*
X131585369Y-99020750D01*
X131585368Y-99020745D01*
X131543909Y-98902262D01*
X131525789Y-98850478D01*
X131503265Y-98814632D01*
X131429815Y-98697737D01*
X131302262Y-98570184D01*
X131149523Y-98474211D01*
X130979254Y-98414631D01*
X130979249Y-98414630D01*
X130800004Y-98394435D01*
X130799996Y-98394435D01*
X130620750Y-98414630D01*
X130620745Y-98414631D01*
X130450476Y-98474211D01*
X130297737Y-98570184D01*
X130170184Y-98697737D01*
X130074211Y-98850476D01*
X130014631Y-99020745D01*
X130014630Y-99020750D01*
X129994435Y-99199996D01*
X125000000Y-99199996D01*
X125000000Y-96014996D01*
X129994435Y-96014996D01*
X129994435Y-96015003D01*
X130014630Y-96194249D01*
X130014631Y-96194254D01*
X130074211Y-96364523D01*
X130128221Y-96450478D01*
X130170184Y-96517262D01*
X130297738Y-96644816D01*
X130450478Y-96740789D01*
X130560405Y-96779254D01*
X130620745Y-96800368D01*
X130620750Y-96800369D01*
X130799996Y-96820565D01*
X130800000Y-96820565D01*
X130800004Y-96820565D01*
X130979249Y-96800369D01*
X130979252Y-96800368D01*
X130979255Y-96800368D01*
X131149522Y-96740789D01*
X131302262Y-96644816D01*
X131429816Y-96517262D01*
X131515603Y-96380733D01*
X131567938Y-96334442D01*
X131636991Y-96323794D01*
X131661552Y-96329664D01*
X131820737Y-96385366D01*
X131820743Y-96385367D01*
X131820745Y-96385368D01*
X131820746Y-96385368D01*
X131820750Y-96385369D01*
X131999996Y-96405565D01*
X132000000Y-96405565D01*
X132000004Y-96405565D01*
X132179249Y-96385369D01*
X132179251Y-96385368D01*
X132179255Y-96385368D01*
X132179258Y-96385366D01*
X132179262Y-96385366D01*
X132298285Y-96343718D01*
X132368064Y-96340156D01*
X132428691Y-96374884D01*
X132460919Y-96436877D01*
X132456282Y-96501713D01*
X132414632Y-96620742D01*
X132414630Y-96620750D01*
X132394435Y-96799996D01*
X132394435Y-96800003D01*
X132414630Y-96979249D01*
X132414631Y-96979254D01*
X132474211Y-97149523D01*
X132524662Y-97229815D01*
X132570184Y-97302262D01*
X132697738Y-97429816D01*
X132712638Y-97439178D01*
X132758929Y-97491513D01*
X132769577Y-97560566D01*
X132741202Y-97624415D01*
X132687621Y-97661213D01*
X132650480Y-97674209D01*
X132497737Y-97770184D01*
X132370184Y-97897737D01*
X132274211Y-98050476D01*
X132214631Y-98220745D01*
X132214630Y-98220750D01*
X132194435Y-98399996D01*
X132194435Y-98400003D01*
X132214630Y-98579249D01*
X132214631Y-98579254D01*
X132274211Y-98749523D01*
X132337646Y-98850478D01*
X132370184Y-98902262D01*
X132497738Y-99029816D01*
X132588080Y-99086582D01*
X132605833Y-99097737D01*
X132650478Y-99125789D01*
X132806164Y-99180266D01*
X132820745Y-99185368D01*
X132820750Y-99185369D01*
X132999996Y-99205565D01*
X133000000Y-99205565D01*
X133000004Y-99205565D01*
X133049430Y-99199996D01*
X140194435Y-99199996D01*
X140194435Y-99200003D01*
X140214630Y-99379249D01*
X140214631Y-99379254D01*
X140274211Y-99549523D01*
X140305926Y-99599996D01*
X140370184Y-99702262D01*
X140497738Y-99829816D01*
X140650478Y-99925789D01*
X140718306Y-99949523D01*
X140820745Y-99985368D01*
X140820750Y-99985369D01*
X140999996Y-100005565D01*
X141000000Y-100005565D01*
X141000004Y-100005565D01*
X141179249Y-99985369D01*
X141179252Y-99985368D01*
X141179255Y-99985368D01*
X141349522Y-99925789D01*
X141502262Y-99829816D01*
X141629816Y-99702262D01*
X141694074Y-99599996D01*
X145194435Y-99599996D01*
X145194435Y-99600003D01*
X145214630Y-99779249D01*
X145214631Y-99779254D01*
X145274211Y-99949523D01*
X145341719Y-100056961D01*
X145370184Y-100102262D01*
X145497738Y-100229816D01*
X145650478Y-100325789D01*
X145820745Y-100385368D01*
X145820750Y-100385369D01*
X145999996Y-100405565D01*
X146000000Y-100405565D01*
X146000004Y-100405565D01*
X146179249Y-100385369D01*
X146179252Y-100385368D01*
X146179255Y-100385368D01*
X146349522Y-100325789D01*
X146502262Y-100229816D01*
X146629816Y-100102262D01*
X146725789Y-99949522D01*
X146785368Y-99779255D01*
X146805565Y-99600000D01*
X146805565Y-99599996D01*
X147994435Y-99599996D01*
X147994435Y-99600003D01*
X148014630Y-99779249D01*
X148014631Y-99779254D01*
X148074211Y-99949523D01*
X148141719Y-100056961D01*
X148170184Y-100102262D01*
X148297738Y-100229816D01*
X148450478Y-100325789D01*
X148450480Y-100325790D01*
X148613857Y-100382959D01*
X148670633Y-100423680D01*
X148696380Y-100488633D01*
X148682924Y-100557195D01*
X148634536Y-100607597D01*
X148613857Y-100617041D01*
X148450480Y-100674209D01*
X148297737Y-100770184D01*
X148170184Y-100897737D01*
X148074211Y-101050476D01*
X148014631Y-101220745D01*
X148014630Y-101220750D01*
X147994435Y-101399996D01*
X147994435Y-101400003D01*
X148014630Y-101579249D01*
X148014631Y-101579254D01*
X148074211Y-101749523D01*
X148096735Y-101785369D01*
X148170184Y-101902262D01*
X148297738Y-102029816D01*
X148450478Y-102125789D01*
X148620745Y-102185368D01*
X148620750Y-102185369D01*
X148799996Y-102205565D01*
X148800000Y-102205565D01*
X148800004Y-102205565D01*
X148979249Y-102185369D01*
X148979252Y-102185368D01*
X148979255Y-102185368D01*
X149149522Y-102125789D01*
X149302262Y-102029816D01*
X149429816Y-101902262D01*
X149525789Y-101749522D01*
X149585368Y-101579255D01*
X149605565Y-101400000D01*
X149585368Y-101220745D01*
X149525789Y-101050478D01*
X149494069Y-100999996D01*
X158994435Y-100999996D01*
X158994435Y-101000003D01*
X159014630Y-101179249D01*
X159014631Y-101179254D01*
X159074211Y-101349523D01*
X159105926Y-101399996D01*
X159170184Y-101502262D01*
X159297738Y-101629816D01*
X159450478Y-101725789D01*
X159518306Y-101749523D01*
X159620745Y-101785368D01*
X159620750Y-101785369D01*
X159799996Y-101805565D01*
X159800000Y-101805565D01*
X159800004Y-101805565D01*
X159979249Y-101785369D01*
X159979252Y-101785368D01*
X159979255Y-101785368D01*
X160149522Y-101725789D01*
X160302262Y-101629816D01*
X160429816Y-101502262D01*
X160525789Y-101349522D01*
X160585368Y-101179255D01*
X160605565Y-101000000D01*
X160585368Y-100820745D01*
X160525789Y-100650478D01*
X160503265Y-100614632D01*
X160467175Y-100557195D01*
X160429816Y-100497738D01*
X160302262Y-100370184D01*
X160149523Y-100274211D01*
X159979254Y-100214631D01*
X159979249Y-100214630D01*
X159800004Y-100194435D01*
X159799996Y-100194435D01*
X159620750Y-100214630D01*
X159620745Y-100214631D01*
X159450476Y-100274211D01*
X159297737Y-100370184D01*
X159170184Y-100497737D01*
X159074211Y-100650476D01*
X159014631Y-100820745D01*
X159014630Y-100820750D01*
X158994435Y-100999996D01*
X149494069Y-100999996D01*
X149429816Y-100897738D01*
X149302262Y-100770184D01*
X149149523Y-100674211D01*
X148986142Y-100617042D01*
X148929366Y-100576320D01*
X148903619Y-100511367D01*
X148917075Y-100442806D01*
X148965462Y-100392403D01*
X148986142Y-100382958D01*
X149022648Y-100370184D01*
X149149522Y-100325789D01*
X149302262Y-100229816D01*
X149429816Y-100102262D01*
X149525789Y-99949522D01*
X149585368Y-99779255D01*
X149605565Y-99600000D01*
X149585368Y-99420745D01*
X149525789Y-99250478D01*
X149429816Y-99097738D01*
X149302262Y-98970184D01*
X149149523Y-98874211D01*
X148979254Y-98814631D01*
X148979249Y-98814630D01*
X148800004Y-98794435D01*
X148799996Y-98794435D01*
X148620750Y-98814630D01*
X148620745Y-98814631D01*
X148450476Y-98874211D01*
X148297737Y-98970184D01*
X148170184Y-99097737D01*
X148074211Y-99250476D01*
X148014631Y-99420745D01*
X148014630Y-99420750D01*
X147994435Y-99599996D01*
X146805565Y-99599996D01*
X146785368Y-99420745D01*
X146725789Y-99250478D01*
X146629816Y-99097738D01*
X146502262Y-98970184D01*
X146349523Y-98874211D01*
X146179254Y-98814631D01*
X146179249Y-98814630D01*
X146000004Y-98794435D01*
X145999996Y-98794435D01*
X145820750Y-98814630D01*
X145820745Y-98814631D01*
X145650476Y-98874211D01*
X145497737Y-98970184D01*
X145370184Y-99097737D01*
X145274211Y-99250476D01*
X145214631Y-99420745D01*
X145214630Y-99420750D01*
X145194435Y-99599996D01*
X141694074Y-99599996D01*
X141725789Y-99549522D01*
X141785368Y-99379255D01*
X141805565Y-99200000D01*
X141803916Y-99185369D01*
X141785369Y-99020750D01*
X141785368Y-99020745D01*
X141743909Y-98902262D01*
X141725789Y-98850478D01*
X141703265Y-98814632D01*
X141629815Y-98697737D01*
X141502262Y-98570184D01*
X141349523Y-98474211D01*
X141179254Y-98414631D01*
X141179249Y-98414630D01*
X141049362Y-98399996D01*
X153194435Y-98399996D01*
X153194435Y-98400003D01*
X153214630Y-98579249D01*
X153214631Y-98579254D01*
X153274211Y-98749523D01*
X153337646Y-98850478D01*
X153370184Y-98902262D01*
X153497738Y-99029816D01*
X153588080Y-99086582D01*
X153605833Y-99097737D01*
X153650478Y-99125789D01*
X153806164Y-99180266D01*
X153820745Y-99185368D01*
X153820750Y-99185369D01*
X153999996Y-99205565D01*
X154000000Y-99205565D01*
X154000004Y-99205565D01*
X154179249Y-99185369D01*
X154179252Y-99185368D01*
X154179255Y-99185368D01*
X154193836Y-99180266D01*
X156323287Y-99180266D01*
X156482058Y-99235824D01*
X156649998Y-99254746D01*
X156650006Y-99254746D01*
X156817945Y-99235824D01*
X156976715Y-99180267D01*
X156976716Y-99180266D01*
X156650003Y-98853553D01*
X156650002Y-98853553D01*
X156323287Y-99180266D01*
X154193836Y-99180266D01*
X154349522Y-99125789D01*
X154502262Y-99029816D01*
X154629816Y-98902262D01*
X154725789Y-98749522D01*
X154785368Y-98579255D01*
X154786390Y-98570184D01*
X154805565Y-98400003D01*
X154805565Y-98399996D01*
X154785369Y-98220750D01*
X154785366Y-98220737D01*
X154740068Y-98091285D01*
X154736505Y-98021507D01*
X154769426Y-97962651D01*
X154829816Y-97902262D01*
X154925789Y-97749522D01*
X154985368Y-97579255D01*
X154991392Y-97525789D01*
X155005565Y-97400003D01*
X155005565Y-97399996D01*
X154985369Y-97220750D01*
X154985368Y-97220745D01*
X154939301Y-97089093D01*
X154925789Y-97050478D01*
X154894068Y-96999995D01*
X155895257Y-96999995D01*
X155895257Y-96999999D01*
X155914178Y-97167940D01*
X155914179Y-97167945D01*
X155972300Y-97334043D01*
X155979258Y-97374998D01*
X155979258Y-97375001D01*
X155972300Y-97415956D01*
X155914179Y-97582053D01*
X155914178Y-97582058D01*
X155895257Y-97749996D01*
X155895257Y-97750003D01*
X155914178Y-97917941D01*
X155914179Y-97917946D01*
X155972300Y-98084044D01*
X155979258Y-98124999D01*
X155979258Y-98125002D01*
X155972300Y-98165957D01*
X155914179Y-98332054D01*
X155914178Y-98332059D01*
X155895257Y-98499997D01*
X155895257Y-98500001D01*
X155914178Y-98667939D01*
X155914179Y-98667944D01*
X155969735Y-98826714D01*
X156385544Y-98410905D01*
X156446867Y-98377420D01*
X156516558Y-98382404D01*
X156560906Y-98410905D01*
X156578160Y-98428159D01*
X156563870Y-98442449D01*
X156548402Y-98479792D01*
X156548402Y-98520210D01*
X156563870Y-98557553D01*
X156592450Y-98586133D01*
X156629793Y-98601601D01*
X156670211Y-98601601D01*
X156707554Y-98586133D01*
X156736134Y-98557553D01*
X156751602Y-98520210D01*
X156751602Y-98479792D01*
X156736134Y-98442449D01*
X156721843Y-98428158D01*
X156739095Y-98410906D01*
X156800418Y-98377421D01*
X156870110Y-98382405D01*
X156914458Y-98410906D01*
X157330267Y-98826715D01*
X157330268Y-98826714D01*
X157385825Y-98667944D01*
X157404747Y-98500001D01*
X157404747Y-98499997D01*
X157385825Y-98332059D01*
X157385823Y-98332051D01*
X157327704Y-98165955D01*
X157331018Y-98164795D01*
X157321461Y-98111688D01*
X157327704Y-98084044D01*
X157385822Y-97917954D01*
X157385825Y-97917941D01*
X157404747Y-97750003D01*
X157404747Y-97749996D01*
X157385825Y-97582058D01*
X157385823Y-97582050D01*
X157327704Y-97415954D01*
X157331018Y-97414794D01*
X157321461Y-97361687D01*
X157327704Y-97334043D01*
X157385822Y-97167953D01*
X157385825Y-97167940D01*
X157404747Y-96999999D01*
X157404747Y-96999995D01*
X157385825Y-96832055D01*
X157330267Y-96673284D01*
X156914458Y-97089093D01*
X156853135Y-97122578D01*
X156783443Y-97117594D01*
X156739096Y-97089093D01*
X156721844Y-97071841D01*
X156736134Y-97057551D01*
X156751602Y-97020208D01*
X156751602Y-96979790D01*
X156736134Y-96942447D01*
X156707554Y-96913867D01*
X156670211Y-96898399D01*
X156629793Y-96898399D01*
X156592450Y-96913867D01*
X156563870Y-96942447D01*
X156548402Y-96979790D01*
X156548402Y-97020208D01*
X156563870Y-97057551D01*
X156578160Y-97071841D01*
X156560907Y-97089094D01*
X156499584Y-97122579D01*
X156429892Y-97117595D01*
X156385545Y-97089094D01*
X155969735Y-96673284D01*
X155914179Y-96832052D01*
X155914178Y-96832057D01*
X155895257Y-96999995D01*
X154894068Y-96999995D01*
X154829816Y-96897738D01*
X154702262Y-96770184D01*
X154655479Y-96740788D01*
X154549523Y-96674211D01*
X154379254Y-96614631D01*
X154379249Y-96614630D01*
X154200004Y-96594435D01*
X154199996Y-96594435D01*
X154020750Y-96614630D01*
X154020745Y-96614631D01*
X153850476Y-96674211D01*
X153697737Y-96770184D01*
X153570184Y-96897737D01*
X153474211Y-97050476D01*
X153414631Y-97220745D01*
X153414630Y-97220750D01*
X153394435Y-97399996D01*
X153394435Y-97400003D01*
X153414630Y-97579249D01*
X153414632Y-97579257D01*
X153459931Y-97708714D01*
X153463492Y-97778492D01*
X153430572Y-97837348D01*
X153370184Y-97897736D01*
X153274211Y-98050476D01*
X153214631Y-98220745D01*
X153214630Y-98220750D01*
X153194435Y-98399996D01*
X141049362Y-98399996D01*
X141000004Y-98394435D01*
X140999996Y-98394435D01*
X140820750Y-98414630D01*
X140820745Y-98414631D01*
X140650476Y-98474211D01*
X140497737Y-98570184D01*
X140370184Y-98697737D01*
X140274211Y-98850476D01*
X140214631Y-99020745D01*
X140214630Y-99020750D01*
X140194435Y-99199996D01*
X133049430Y-99199996D01*
X133179249Y-99185369D01*
X133179252Y-99185368D01*
X133179255Y-99185368D01*
X133349522Y-99125789D01*
X133502262Y-99029816D01*
X133629816Y-98902262D01*
X133725789Y-98749522D01*
X133785368Y-98579255D01*
X133786390Y-98570184D01*
X133805565Y-98400003D01*
X133805565Y-98399996D01*
X133785369Y-98220750D01*
X133785368Y-98220745D01*
X133725788Y-98050476D01*
X133670602Y-97962648D01*
X133629816Y-97897738D01*
X133502262Y-97770184D01*
X133502259Y-97770182D01*
X133487360Y-97760820D01*
X133441069Y-97708485D01*
X133430422Y-97639431D01*
X133458798Y-97575583D01*
X133512377Y-97538786D01*
X133549522Y-97525789D01*
X133702262Y-97429816D01*
X133829816Y-97302262D01*
X133925789Y-97149522D01*
X133985368Y-96979255D01*
X133988718Y-96949522D01*
X134005565Y-96800003D01*
X134005565Y-96799996D01*
X133985369Y-96620750D01*
X133985368Y-96620745D01*
X133943717Y-96501713D01*
X133925789Y-96450478D01*
X133907106Y-96420745D01*
X133856469Y-96340156D01*
X133843636Y-96319732D01*
X156323287Y-96319732D01*
X156650002Y-96646447D01*
X156650003Y-96646447D01*
X156896452Y-96399996D01*
X166194435Y-96399996D01*
X166194435Y-96400003D01*
X166214630Y-96579249D01*
X166214631Y-96579254D01*
X166274211Y-96749523D01*
X166306160Y-96800369D01*
X166370184Y-96902262D01*
X166497738Y-97029816D01*
X166541878Y-97057551D01*
X166645367Y-97122578D01*
X166650478Y-97125789D01*
X166718306Y-97149523D01*
X166820745Y-97185368D01*
X166820750Y-97185369D01*
X166999996Y-97205565D01*
X167000000Y-97205565D01*
X167000004Y-97205565D01*
X167179249Y-97185369D01*
X167179252Y-97185368D01*
X167179255Y-97185368D01*
X167349522Y-97125789D01*
X167502262Y-97029816D01*
X167629816Y-96902262D01*
X167725789Y-96749522D01*
X167778110Y-96599996D01*
X168194435Y-96599996D01*
X168194435Y-96600003D01*
X168214630Y-96779249D01*
X168214631Y-96779254D01*
X168274211Y-96949523D01*
X168337646Y-97050478D01*
X168370184Y-97102262D01*
X168497738Y-97229816D01*
X168650478Y-97325789D01*
X168674067Y-97334043D01*
X168820745Y-97385368D01*
X168820750Y-97385369D01*
X168999996Y-97405565D01*
X169000000Y-97405565D01*
X169000002Y-97405565D01*
X169043511Y-97400662D01*
X169069395Y-97397746D01*
X169138217Y-97409800D01*
X169189596Y-97457149D01*
X169206499Y-97507082D01*
X169214630Y-97579250D01*
X169214631Y-97579254D01*
X169274211Y-97749523D01*
X169329396Y-97837348D01*
X169370184Y-97902262D01*
X169497738Y-98029816D01*
X169584041Y-98084044D01*
X169649220Y-98124999D01*
X169650478Y-98125789D01*
X169761951Y-98164795D01*
X169820745Y-98185368D01*
X169820750Y-98185369D01*
X169999996Y-98205565D01*
X170000000Y-98205565D01*
X170000004Y-98205565D01*
X170179249Y-98185369D01*
X170179252Y-98185368D01*
X170179255Y-98185368D01*
X170349522Y-98125789D01*
X170502262Y-98029816D01*
X170629816Y-97902262D01*
X170725789Y-97749522D01*
X170785368Y-97579255D01*
X170791392Y-97525789D01*
X170805565Y-97400003D01*
X170805565Y-97399996D01*
X170785369Y-97220750D01*
X170785368Y-97220745D01*
X170739301Y-97089093D01*
X170725789Y-97050478D01*
X170629816Y-96897738D01*
X170502262Y-96770184D01*
X170455479Y-96740788D01*
X170349523Y-96674211D01*
X170179254Y-96614631D01*
X170179249Y-96614630D01*
X170000004Y-96594435D01*
X169999995Y-96594435D01*
X169930602Y-96602253D01*
X169861781Y-96590198D01*
X169810402Y-96542849D01*
X169793500Y-96492916D01*
X169785369Y-96420750D01*
X169785368Y-96420745D01*
X169771367Y-96380733D01*
X169725789Y-96250478D01*
X169707106Y-96220745D01*
X169675337Y-96170184D01*
X169629816Y-96097738D01*
X169502262Y-95970184D01*
X169387836Y-95898285D01*
X169349523Y-95874211D01*
X169179254Y-95814631D01*
X169179249Y-95814630D01*
X169000004Y-95794435D01*
X168999996Y-95794435D01*
X168820750Y-95814630D01*
X168820745Y-95814631D01*
X168650476Y-95874211D01*
X168497737Y-95970184D01*
X168370184Y-96097737D01*
X168274211Y-96250476D01*
X168214631Y-96420745D01*
X168214630Y-96420750D01*
X168194435Y-96599996D01*
X167778110Y-96599996D01*
X167785368Y-96579255D01*
X167805565Y-96400000D01*
X167803916Y-96385369D01*
X167785369Y-96220750D01*
X167785368Y-96220745D01*
X167742326Y-96097738D01*
X167725789Y-96050478D01*
X167703265Y-96014632D01*
X167662354Y-95949522D01*
X167629816Y-95897738D01*
X167502262Y-95770184D01*
X167431608Y-95725789D01*
X167349523Y-95674211D01*
X167179254Y-95614631D01*
X167179249Y-95614630D01*
X167000004Y-95594435D01*
X166999996Y-95594435D01*
X166820750Y-95614630D01*
X166820745Y-95614631D01*
X166650476Y-95674211D01*
X166497737Y-95770184D01*
X166370184Y-95897737D01*
X166274211Y-96050476D01*
X166214631Y-96220745D01*
X166214630Y-96220750D01*
X166194435Y-96399996D01*
X156896452Y-96399996D01*
X156976716Y-96319732D01*
X156817945Y-96264176D01*
X156817940Y-96264175D01*
X156650006Y-96245254D01*
X156649998Y-96245254D01*
X156482060Y-96264175D01*
X156482055Y-96264176D01*
X156323287Y-96319732D01*
X133843636Y-96319732D01*
X133829816Y-96297738D01*
X133702262Y-96170184D01*
X133549523Y-96074211D01*
X133379254Y-96014631D01*
X133379249Y-96014630D01*
X133200004Y-95994435D01*
X133199996Y-95994435D01*
X133020750Y-96014630D01*
X133020742Y-96014632D01*
X132901713Y-96056282D01*
X132831934Y-96059843D01*
X132771307Y-96025114D01*
X132739080Y-95963120D01*
X132743718Y-95898285D01*
X132785366Y-95779262D01*
X132785369Y-95779249D01*
X132805565Y-95600003D01*
X132805565Y-95599996D01*
X132785369Y-95420750D01*
X132785368Y-95420745D01*
X132725788Y-95250476D01*
X132662353Y-95149520D01*
X132629816Y-95097738D01*
X132532074Y-94999996D01*
X153994435Y-94999996D01*
X153994435Y-95000003D01*
X154014630Y-95179249D01*
X154014631Y-95179254D01*
X154074211Y-95349523D01*
X154124662Y-95429815D01*
X154170184Y-95502262D01*
X154297738Y-95629816D01*
X154450478Y-95725789D01*
X154577352Y-95770184D01*
X154620745Y-95785368D01*
X154620750Y-95785369D01*
X154799996Y-95805565D01*
X154800000Y-95805565D01*
X154800004Y-95805565D01*
X154979249Y-95785369D01*
X154979252Y-95785368D01*
X154979255Y-95785368D01*
X155149522Y-95725789D01*
X155302262Y-95629816D01*
X155362651Y-95569426D01*
X155423971Y-95535943D01*
X155491285Y-95540068D01*
X155620737Y-95585366D01*
X155620743Y-95585367D01*
X155620745Y-95585368D01*
X155620746Y-95585368D01*
X155620750Y-95585369D01*
X155799996Y-95605565D01*
X155800000Y-95605565D01*
X155800004Y-95605565D01*
X155979249Y-95585369D01*
X155979252Y-95585368D01*
X155979255Y-95585368D01*
X156149522Y-95525789D01*
X156302262Y-95429816D01*
X156429816Y-95302262D01*
X156525789Y-95149522D01*
X156539762Y-95109588D01*
X156580483Y-95052813D01*
X156645435Y-95027064D01*
X156713997Y-95040519D01*
X156722768Y-95045543D01*
X156850478Y-95125789D01*
X157003258Y-95179249D01*
X157020745Y-95185368D01*
X157020750Y-95185369D01*
X157199996Y-95205565D01*
X157200000Y-95205565D01*
X157200004Y-95205565D01*
X157379249Y-95185369D01*
X157379252Y-95185368D01*
X157379255Y-95185368D01*
X157549522Y-95125789D01*
X157702262Y-95029816D01*
X157829816Y-94902262D01*
X157925789Y-94749522D01*
X157985368Y-94579255D01*
X158005565Y-94400000D01*
X157993313Y-94291262D01*
X157985369Y-94220750D01*
X157985368Y-94220745D01*
X157970848Y-94179249D01*
X157925789Y-94050478D01*
X157907106Y-94020745D01*
X157829815Y-93897737D01*
X157702262Y-93770184D01*
X157549523Y-93674211D01*
X157379254Y-93614631D01*
X157379249Y-93614630D01*
X157200004Y-93594435D01*
X157199996Y-93594435D01*
X157020750Y-93614630D01*
X157020745Y-93614631D01*
X156850476Y-93674211D01*
X156697737Y-93770184D01*
X156570184Y-93897737D01*
X156474209Y-94050479D01*
X156460236Y-94090413D01*
X156419514Y-94147188D01*
X156354561Y-94172935D01*
X156285999Y-94159478D01*
X156277223Y-94154451D01*
X156149523Y-94074211D01*
X155979254Y-94014631D01*
X155979249Y-94014630D01*
X155800004Y-93994435D01*
X155799996Y-93994435D01*
X155620750Y-94014630D01*
X155620745Y-94014631D01*
X155450476Y-94074211D01*
X155297736Y-94170184D01*
X155237348Y-94230572D01*
X155176024Y-94264056D01*
X155108714Y-94259931D01*
X154979257Y-94214632D01*
X154979249Y-94214630D01*
X154800004Y-94194435D01*
X154799996Y-94194435D01*
X154620750Y-94214630D01*
X154620745Y-94214631D01*
X154450476Y-94274211D01*
X154297737Y-94370184D01*
X154170184Y-94497737D01*
X154074211Y-94650476D01*
X154014631Y-94820745D01*
X154014630Y-94820750D01*
X153994435Y-94999996D01*
X132532074Y-94999996D01*
X132502262Y-94970184D01*
X132431608Y-94925789D01*
X132349523Y-94874211D01*
X132179254Y-94814631D01*
X132179249Y-94814630D01*
X132000004Y-94794435D01*
X131999996Y-94794435D01*
X131820750Y-94814630D01*
X131820745Y-94814631D01*
X131650476Y-94874211D01*
X131497737Y-94970184D01*
X131370182Y-95097739D01*
X131284396Y-95234267D01*
X131232062Y-95280557D01*
X131163008Y-95291205D01*
X131138448Y-95285336D01*
X130979254Y-95229631D01*
X130979249Y-95229630D01*
X130800004Y-95209435D01*
X130799996Y-95209435D01*
X130620750Y-95229630D01*
X130620745Y-95229631D01*
X130450476Y-95289211D01*
X130297737Y-95385184D01*
X130170184Y-95512737D01*
X130074211Y-95665476D01*
X130014631Y-95835745D01*
X130014630Y-95835750D01*
X129994435Y-96014996D01*
X125000000Y-96014996D01*
X125000000Y-94199996D01*
X127394435Y-94199996D01*
X127394435Y-94200003D01*
X127414630Y-94379249D01*
X127414631Y-94379254D01*
X127474211Y-94549523D01*
X127537646Y-94650478D01*
X127570184Y-94702262D01*
X127697738Y-94829816D01*
X127768392Y-94874211D01*
X127847159Y-94923704D01*
X127850478Y-94925789D01*
X127977352Y-94970184D01*
X128020745Y-94985368D01*
X128020750Y-94985369D01*
X128199996Y-95005565D01*
X128200000Y-95005565D01*
X128200004Y-95005565D01*
X128379249Y-94985369D01*
X128379252Y-94985368D01*
X128379255Y-94985368D01*
X128549522Y-94925789D01*
X128702262Y-94829816D01*
X128829816Y-94702262D01*
X128925789Y-94549522D01*
X128985368Y-94379255D01*
X128988718Y-94349522D01*
X129005565Y-94200003D01*
X129005565Y-94199996D01*
X128985369Y-94020750D01*
X128985368Y-94020745D01*
X128942326Y-93897738D01*
X128925789Y-93850478D01*
X128907106Y-93820745D01*
X128829815Y-93697737D01*
X128702262Y-93570184D01*
X128549523Y-93474211D01*
X128379254Y-93414631D01*
X128379249Y-93414630D01*
X128200004Y-93394435D01*
X128199996Y-93394435D01*
X128020750Y-93414630D01*
X128020745Y-93414631D01*
X127850476Y-93474211D01*
X127697737Y-93570184D01*
X127570184Y-93697737D01*
X127474211Y-93850476D01*
X127414631Y-94020745D01*
X127414630Y-94020750D01*
X127394435Y-94199996D01*
X125000000Y-94199996D01*
X125000000Y-91399996D01*
X130794435Y-91399996D01*
X130794435Y-91400003D01*
X130814630Y-91579249D01*
X130814631Y-91579254D01*
X130874211Y-91749523D01*
X130915122Y-91814632D01*
X130970184Y-91902262D01*
X131097738Y-92029816D01*
X131188080Y-92086582D01*
X131205833Y-92097737D01*
X131250478Y-92125789D01*
X131420745Y-92185368D01*
X131420750Y-92185369D01*
X131492712Y-92193476D01*
X131547391Y-92199637D01*
X131611805Y-92226703D01*
X131650549Y-92281902D01*
X131674209Y-92349518D01*
X131674210Y-92349522D01*
X131770184Y-92502262D01*
X131897738Y-92629816D01*
X132050478Y-92725789D01*
X132186045Y-92773226D01*
X132220745Y-92785368D01*
X132220750Y-92785369D01*
X132399996Y-92805565D01*
X132400000Y-92805565D01*
X132400003Y-92805565D01*
X132481172Y-92796419D01*
X132517082Y-92792373D01*
X132585904Y-92804427D01*
X132637284Y-92851776D01*
X132648008Y-92874638D01*
X132674211Y-92949523D01*
X132770184Y-93102262D01*
X132796816Y-93128894D01*
X132830301Y-93190217D01*
X132825317Y-93259909D01*
X132783445Y-93315842D01*
X132775108Y-93321568D01*
X132697740Y-93370182D01*
X132697737Y-93370184D01*
X132570184Y-93497737D01*
X132474211Y-93650476D01*
X132414631Y-93820745D01*
X132414630Y-93820750D01*
X132394435Y-93999996D01*
X132394435Y-94000003D01*
X132414630Y-94179249D01*
X132414631Y-94179254D01*
X132474211Y-94349523D01*
X132505926Y-94399996D01*
X132570184Y-94502262D01*
X132697738Y-94629816D01*
X132850478Y-94725789D01*
X132918306Y-94749523D01*
X133020745Y-94785368D01*
X133020750Y-94785369D01*
X133199996Y-94805565D01*
X133200000Y-94805565D01*
X133200004Y-94805565D01*
X133379249Y-94785369D01*
X133379252Y-94785368D01*
X133379255Y-94785368D01*
X133549522Y-94725789D01*
X133702262Y-94629816D01*
X133829816Y-94502262D01*
X133925789Y-94349522D01*
X133985368Y-94179255D01*
X133986390Y-94170184D01*
X134005565Y-94000003D01*
X134005565Y-93999996D01*
X133985369Y-93820750D01*
X133985368Y-93820745D01*
X133942326Y-93697738D01*
X133925789Y-93650478D01*
X133903265Y-93614632D01*
X133829815Y-93497737D01*
X133803183Y-93471105D01*
X133769698Y-93409782D01*
X133774682Y-93340090D01*
X133816554Y-93284157D01*
X133824877Y-93278439D01*
X133902262Y-93229816D01*
X134029816Y-93102262D01*
X134125789Y-92949522D01*
X134185368Y-92779255D01*
X134185369Y-92779249D01*
X134205565Y-92600003D01*
X134205565Y-92599996D01*
X134185369Y-92420750D01*
X134185368Y-92420745D01*
X134160446Y-92349522D01*
X134125789Y-92250478D01*
X134029816Y-92097738D01*
X133902262Y-91970184D01*
X133749523Y-91874211D01*
X133579254Y-91814631D01*
X133579249Y-91814630D01*
X133400004Y-91794435D01*
X133399996Y-91794435D01*
X133282916Y-91807626D01*
X133214094Y-91795571D01*
X133162715Y-91748222D01*
X133151991Y-91725360D01*
X133125789Y-91650478D01*
X133084878Y-91585369D01*
X133029816Y-91497738D01*
X132902262Y-91370184D01*
X132749523Y-91274211D01*
X132579254Y-91214631D01*
X132579250Y-91214630D01*
X132452607Y-91200361D01*
X132388193Y-91173294D01*
X132349449Y-91118095D01*
X132325788Y-91050476D01*
X132281033Y-90979249D01*
X132229816Y-90897738D01*
X132102262Y-90770184D01*
X132069379Y-90749522D01*
X131949523Y-90674211D01*
X131779254Y-90614631D01*
X131779249Y-90614630D01*
X131600004Y-90594435D01*
X131599996Y-90594435D01*
X131420750Y-90614630D01*
X131420745Y-90614631D01*
X131250476Y-90674211D01*
X131097737Y-90770184D01*
X130970184Y-90897737D01*
X130874211Y-91050476D01*
X130814631Y-91220745D01*
X130814630Y-91220750D01*
X130794435Y-91399996D01*
X125000000Y-91399996D01*
X125000000Y-90399996D01*
X146794435Y-90399996D01*
X146794435Y-90400003D01*
X146814630Y-90579249D01*
X146814631Y-90579254D01*
X146874211Y-90749523D01*
X146905926Y-90799996D01*
X146970184Y-90902262D01*
X147097738Y-91029816D01*
X147250478Y-91125789D01*
X147420745Y-91185368D01*
X147420750Y-91185369D01*
X147599996Y-91205565D01*
X147600000Y-91205565D01*
X147600004Y-91205565D01*
X147779249Y-91185369D01*
X147779252Y-91185368D01*
X147779255Y-91185368D01*
X147949522Y-91125789D01*
X148102262Y-91029816D01*
X148229816Y-90902262D01*
X148325789Y-90749522D01*
X148385368Y-90579255D01*
X148405565Y-90400000D01*
X148405565Y-90399996D01*
X149394435Y-90399996D01*
X149394435Y-90400003D01*
X149414630Y-90579249D01*
X149414631Y-90579254D01*
X149474211Y-90749523D01*
X149505926Y-90799996D01*
X149570184Y-90902262D01*
X149697738Y-91029816D01*
X149850478Y-91125789D01*
X150020745Y-91185368D01*
X150020750Y-91185369D01*
X150199996Y-91205565D01*
X150200000Y-91205565D01*
X150200004Y-91205565D01*
X150379249Y-91185369D01*
X150379252Y-91185368D01*
X150379255Y-91185368D01*
X150549522Y-91125789D01*
X150702262Y-91029816D01*
X150829816Y-90902262D01*
X150894074Y-90799996D01*
X166194435Y-90799996D01*
X166194435Y-90800003D01*
X166214630Y-90979249D01*
X166214631Y-90979254D01*
X166274211Y-91149523D01*
X166352558Y-91274211D01*
X166370184Y-91302262D01*
X166497738Y-91429816D01*
X166588080Y-91486582D01*
X166605833Y-91497737D01*
X166650478Y-91525789D01*
X166803258Y-91579249D01*
X166820745Y-91585368D01*
X166820750Y-91585369D01*
X166999996Y-91605565D01*
X167000000Y-91605565D01*
X167000004Y-91605565D01*
X167179249Y-91585369D01*
X167179252Y-91585368D01*
X167179255Y-91585368D01*
X167349522Y-91525789D01*
X167502262Y-91429816D01*
X167532082Y-91399996D01*
X168594435Y-91399996D01*
X168594435Y-91400003D01*
X168614630Y-91579249D01*
X168614631Y-91579254D01*
X168674211Y-91749523D01*
X168715122Y-91814632D01*
X168770184Y-91902262D01*
X168897738Y-92029816D01*
X168988080Y-92086582D01*
X169005833Y-92097737D01*
X169050478Y-92125789D01*
X169220745Y-92185368D01*
X169220750Y-92185369D01*
X169399996Y-92205565D01*
X169400000Y-92205565D01*
X169400004Y-92205565D01*
X169579249Y-92185369D01*
X169579252Y-92185368D01*
X169579255Y-92185368D01*
X169749522Y-92125789D01*
X169902262Y-92029816D01*
X170029816Y-91902262D01*
X170125789Y-91749522D01*
X170185368Y-91579255D01*
X170191392Y-91525789D01*
X170205565Y-91400003D01*
X170205565Y-91399996D01*
X170185369Y-91220750D01*
X170185368Y-91220745D01*
X170125788Y-91050476D01*
X170081033Y-90979249D01*
X170029816Y-90897738D01*
X169902262Y-90770184D01*
X169869379Y-90749522D01*
X169749523Y-90674211D01*
X169579254Y-90614631D01*
X169579249Y-90614630D01*
X169400004Y-90594435D01*
X169399996Y-90594435D01*
X169220750Y-90614630D01*
X169220745Y-90614631D01*
X169050476Y-90674211D01*
X168897737Y-90770184D01*
X168770184Y-90897737D01*
X168674211Y-91050476D01*
X168614631Y-91220745D01*
X168614630Y-91220750D01*
X168594435Y-91399996D01*
X167532082Y-91399996D01*
X167629816Y-91302262D01*
X167725789Y-91149522D01*
X167785368Y-90979255D01*
X167805565Y-90800000D01*
X167791392Y-90674211D01*
X167785369Y-90620750D01*
X167785368Y-90620745D01*
X167725788Y-90450476D01*
X167629815Y-90297737D01*
X167502262Y-90170184D01*
X167349523Y-90074211D01*
X167179254Y-90014631D01*
X167179249Y-90014630D01*
X167000004Y-89994435D01*
X166999996Y-89994435D01*
X166820750Y-90014630D01*
X166820745Y-90014631D01*
X166650476Y-90074211D01*
X166497737Y-90170184D01*
X166370184Y-90297737D01*
X166274211Y-90450476D01*
X166214631Y-90620745D01*
X166214630Y-90620750D01*
X166194435Y-90799996D01*
X150894074Y-90799996D01*
X150925789Y-90749522D01*
X150985368Y-90579255D01*
X151005565Y-90400000D01*
X150985368Y-90220745D01*
X150925789Y-90050478D01*
X150903265Y-90014632D01*
X150884878Y-89985368D01*
X150829816Y-89897738D01*
X150702262Y-89770184D01*
X150631608Y-89725789D01*
X150549523Y-89674211D01*
X150379254Y-89614631D01*
X150379249Y-89614630D01*
X150200004Y-89594435D01*
X150199996Y-89594435D01*
X150020750Y-89614630D01*
X150020745Y-89614631D01*
X149850476Y-89674211D01*
X149697737Y-89770184D01*
X149570184Y-89897737D01*
X149474211Y-90050476D01*
X149414631Y-90220745D01*
X149414630Y-90220750D01*
X149394435Y-90399996D01*
X148405565Y-90399996D01*
X148385368Y-90220745D01*
X148325789Y-90050478D01*
X148303265Y-90014632D01*
X148284878Y-89985368D01*
X148229816Y-89897738D01*
X148102262Y-89770184D01*
X148031608Y-89725789D01*
X147949523Y-89674211D01*
X147779254Y-89614631D01*
X147779249Y-89614630D01*
X147600004Y-89594435D01*
X147599996Y-89594435D01*
X147420750Y-89614630D01*
X147420745Y-89614631D01*
X147250476Y-89674211D01*
X147097737Y-89770184D01*
X146970184Y-89897737D01*
X146874211Y-90050476D01*
X146814631Y-90220745D01*
X146814630Y-90220750D01*
X146794435Y-90399996D01*
X125000000Y-90399996D01*
X125000000Y-88999996D01*
X136394435Y-88999996D01*
X136394435Y-89000003D01*
X136414630Y-89179249D01*
X136414631Y-89179254D01*
X136474211Y-89349523D01*
X136524662Y-89429815D01*
X136570184Y-89502262D01*
X136697738Y-89629816D01*
X136850478Y-89725789D01*
X136977352Y-89770184D01*
X137020745Y-89785368D01*
X137020750Y-89785369D01*
X137199996Y-89805565D01*
X137200000Y-89805565D01*
X137200004Y-89805565D01*
X137379249Y-89785369D01*
X137379252Y-89785368D01*
X137379255Y-89785368D01*
X137549522Y-89725789D01*
X137702262Y-89629816D01*
X137829816Y-89502262D01*
X137925789Y-89349522D01*
X137985368Y-89179255D01*
X138005565Y-89000000D01*
X137988718Y-88850478D01*
X137985369Y-88820750D01*
X137985368Y-88820745D01*
X137978108Y-88799996D01*
X138394435Y-88799996D01*
X138394435Y-88800003D01*
X138414630Y-88979249D01*
X138414631Y-88979254D01*
X138474211Y-89149523D01*
X138505926Y-89199996D01*
X138570184Y-89302262D01*
X138697738Y-89429816D01*
X138850478Y-89525789D01*
X138918306Y-89549523D01*
X139020745Y-89585368D01*
X139020750Y-89585369D01*
X139199996Y-89605565D01*
X139200000Y-89605565D01*
X139200004Y-89605565D01*
X139379249Y-89585369D01*
X139379252Y-89585368D01*
X139379255Y-89585368D01*
X139549522Y-89525789D01*
X139702262Y-89429816D01*
X139829816Y-89302262D01*
X139894074Y-89199996D01*
X182394435Y-89199996D01*
X182394435Y-89200003D01*
X182414630Y-89379249D01*
X182414631Y-89379254D01*
X182474211Y-89549523D01*
X182515122Y-89614632D01*
X182570184Y-89702262D01*
X182697738Y-89829816D01*
X182788080Y-89886582D01*
X182805833Y-89897737D01*
X182850478Y-89925789D01*
X183020745Y-89985368D01*
X183020750Y-89985369D01*
X183199996Y-90005565D01*
X183200000Y-90005565D01*
X183200004Y-90005565D01*
X183379249Y-89985369D01*
X183379252Y-89985368D01*
X183379255Y-89985368D01*
X183549522Y-89925789D01*
X183702262Y-89829816D01*
X183829816Y-89702262D01*
X183925789Y-89549522D01*
X183985368Y-89379255D01*
X184005565Y-89200000D01*
X183985368Y-89020745D01*
X183925789Y-88850478D01*
X183907106Y-88820745D01*
X183829815Y-88697737D01*
X183702262Y-88570184D01*
X183549523Y-88474211D01*
X183379254Y-88414631D01*
X183379249Y-88414630D01*
X183200004Y-88394435D01*
X183199996Y-88394435D01*
X183020750Y-88414630D01*
X183020745Y-88414631D01*
X182850476Y-88474211D01*
X182697737Y-88570184D01*
X182570184Y-88697737D01*
X182474211Y-88850476D01*
X182414631Y-89020745D01*
X182414630Y-89020750D01*
X182394435Y-89199996D01*
X139894074Y-89199996D01*
X139925789Y-89149522D01*
X139985368Y-88979255D01*
X140005565Y-88800000D01*
X139988718Y-88650478D01*
X139985369Y-88620750D01*
X139985368Y-88620745D01*
X139942326Y-88497738D01*
X139925789Y-88450478D01*
X139903265Y-88414632D01*
X139875337Y-88370184D01*
X139829816Y-88297738D01*
X139702262Y-88170184D01*
X139631608Y-88125789D01*
X139549523Y-88074211D01*
X139379254Y-88014631D01*
X139379249Y-88014630D01*
X139200004Y-87994435D01*
X139199996Y-87994435D01*
X139020750Y-88014630D01*
X139020745Y-88014631D01*
X138850476Y-88074211D01*
X138697737Y-88170184D01*
X138570184Y-88297737D01*
X138474211Y-88450476D01*
X138414631Y-88620745D01*
X138414630Y-88620750D01*
X138394435Y-88799996D01*
X137978108Y-88799996D01*
X137942326Y-88697738D01*
X137925789Y-88650478D01*
X137907106Y-88620745D01*
X137829815Y-88497737D01*
X137702262Y-88370184D01*
X137549523Y-88274211D01*
X137379254Y-88214631D01*
X137379249Y-88214630D01*
X137200004Y-88194435D01*
X137199996Y-88194435D01*
X137020750Y-88214630D01*
X137020745Y-88214631D01*
X136850476Y-88274211D01*
X136697737Y-88370184D01*
X136570184Y-88497737D01*
X136474211Y-88650476D01*
X136414631Y-88820745D01*
X136414630Y-88820750D01*
X136394435Y-88999996D01*
X125000000Y-88999996D01*
X125000000Y-87399996D01*
X129594435Y-87399996D01*
X129594435Y-87400003D01*
X129614630Y-87579249D01*
X129614631Y-87579254D01*
X129674211Y-87749523D01*
X129770184Y-87902262D01*
X129897738Y-88029816D01*
X130050478Y-88125789D01*
X130177352Y-88170184D01*
X130220745Y-88185368D01*
X130220750Y-88185369D01*
X130399996Y-88205565D01*
X130400000Y-88205565D01*
X130400004Y-88205565D01*
X130579249Y-88185369D01*
X130579252Y-88185368D01*
X130579255Y-88185368D01*
X130749522Y-88125789D01*
X130902262Y-88029816D01*
X131029816Y-87902262D01*
X131125789Y-87749522D01*
X131185368Y-87579255D01*
X131191392Y-87525789D01*
X131205565Y-87400003D01*
X131205565Y-87399996D01*
X131185369Y-87220750D01*
X131185368Y-87220745D01*
X131160446Y-87149522D01*
X131125789Y-87050478D01*
X131029816Y-86897738D01*
X130902262Y-86770184D01*
X130749523Y-86674211D01*
X130579254Y-86614631D01*
X130579249Y-86614630D01*
X130400004Y-86594435D01*
X130399996Y-86594435D01*
X130220750Y-86614630D01*
X130220745Y-86614631D01*
X130050476Y-86674211D01*
X129897737Y-86770184D01*
X129770184Y-86897737D01*
X129674211Y-87050476D01*
X129614631Y-87220745D01*
X129614630Y-87220750D01*
X129594435Y-87399996D01*
X125000000Y-87399996D01*
X125000000Y-86000000D01*
X120124000Y-86000000D01*
X120056961Y-85980315D01*
X120011206Y-85927511D01*
X120000000Y-85876000D01*
X120000000Y-85599996D01*
X126394435Y-85599996D01*
X126394435Y-85600003D01*
X126414630Y-85779249D01*
X126414631Y-85779254D01*
X126474211Y-85949523D01*
X126552558Y-86074211D01*
X126570184Y-86102262D01*
X126697738Y-86229816D01*
X126788080Y-86286582D01*
X126805833Y-86297737D01*
X126850478Y-86325789D01*
X127003258Y-86379249D01*
X127020745Y-86385368D01*
X127020750Y-86385369D01*
X127199996Y-86405565D01*
X127200000Y-86405565D01*
X127200004Y-86405565D01*
X127379249Y-86385369D01*
X127379252Y-86385368D01*
X127379255Y-86385368D01*
X127549522Y-86325789D01*
X127702262Y-86229816D01*
X127732082Y-86199996D01*
X131794435Y-86199996D01*
X131794435Y-86200003D01*
X131814630Y-86379249D01*
X131814631Y-86379254D01*
X131874211Y-86549523D01*
X131952558Y-86674211D01*
X131970184Y-86702262D01*
X132097738Y-86829816D01*
X132168392Y-86874211D01*
X132205833Y-86897737D01*
X132250478Y-86925789D01*
X132377352Y-86970184D01*
X132420745Y-86985368D01*
X132420750Y-86985369D01*
X132492712Y-86993476D01*
X132547391Y-86999637D01*
X132611805Y-87026703D01*
X132650549Y-87081902D01*
X132674209Y-87149518D01*
X132674210Y-87149522D01*
X132737646Y-87250478D01*
X132770184Y-87302262D01*
X132897738Y-87429816D01*
X133050478Y-87525789D01*
X133203258Y-87579249D01*
X133220745Y-87585368D01*
X133220750Y-87585369D01*
X133399996Y-87605565D01*
X133400000Y-87605565D01*
X133400004Y-87605565D01*
X133449430Y-87599996D01*
X176794435Y-87599996D01*
X176794435Y-87600003D01*
X176814630Y-87779249D01*
X176814631Y-87779254D01*
X176874211Y-87949523D01*
X176915122Y-88014632D01*
X176970184Y-88102262D01*
X177097738Y-88229816D01*
X177168392Y-88274211D01*
X177205833Y-88297737D01*
X177250478Y-88325789D01*
X177377352Y-88370184D01*
X177420745Y-88385368D01*
X177420750Y-88385369D01*
X177599996Y-88405565D01*
X177600000Y-88405565D01*
X177600004Y-88405565D01*
X177779249Y-88385369D01*
X177779252Y-88385368D01*
X177779255Y-88385368D01*
X177949522Y-88325789D01*
X178102262Y-88229816D01*
X178229816Y-88102262D01*
X178325789Y-87949522D01*
X178385368Y-87779255D01*
X178405565Y-87600000D01*
X178403916Y-87585369D01*
X178385369Y-87420750D01*
X178385368Y-87420745D01*
X178325788Y-87250476D01*
X178262354Y-87149522D01*
X178229816Y-87097738D01*
X178102262Y-86970184D01*
X178031608Y-86925789D01*
X177949523Y-86874211D01*
X177779254Y-86814631D01*
X177779249Y-86814630D01*
X177649362Y-86799996D01*
X179594435Y-86799996D01*
X179594435Y-86800003D01*
X179614630Y-86979249D01*
X179614631Y-86979254D01*
X179674211Y-87149523D01*
X179737646Y-87250478D01*
X179770184Y-87302262D01*
X179897738Y-87429816D01*
X180050478Y-87525789D01*
X180203258Y-87579249D01*
X180220745Y-87585368D01*
X180220750Y-87585369D01*
X180399996Y-87605565D01*
X180400000Y-87605565D01*
X180400004Y-87605565D01*
X180579249Y-87585369D01*
X180579252Y-87585368D01*
X180579255Y-87585368D01*
X180749522Y-87525789D01*
X180902262Y-87429816D01*
X181029816Y-87302262D01*
X181125789Y-87149522D01*
X181149450Y-87081902D01*
X181190168Y-87025128D01*
X181252606Y-86999637D01*
X181332683Y-86990615D01*
X181379249Y-86985369D01*
X181379252Y-86985368D01*
X181379255Y-86985368D01*
X181549522Y-86925789D01*
X181702262Y-86829816D01*
X181829816Y-86702262D01*
X181925789Y-86549522D01*
X181949449Y-86481903D01*
X181990168Y-86425128D01*
X182052606Y-86399637D01*
X182132683Y-86390615D01*
X182179249Y-86385369D01*
X182179252Y-86385368D01*
X182179255Y-86385368D01*
X182349522Y-86325789D01*
X182502262Y-86229816D01*
X182629816Y-86102262D01*
X182725789Y-85949522D01*
X182785368Y-85779255D01*
X182791392Y-85725789D01*
X182805565Y-85600003D01*
X182805565Y-85599996D01*
X182785369Y-85420750D01*
X182785368Y-85420745D01*
X182775427Y-85392335D01*
X182725789Y-85250478D01*
X182629816Y-85097738D01*
X182502262Y-84970184D01*
X182499006Y-84968138D01*
X182349523Y-84874211D01*
X182179254Y-84814631D01*
X182179249Y-84814630D01*
X182000004Y-84794435D01*
X181999996Y-84794435D01*
X181820750Y-84814630D01*
X181820745Y-84814631D01*
X181650476Y-84874211D01*
X181497737Y-84970184D01*
X181370184Y-85097737D01*
X181274209Y-85250480D01*
X181250549Y-85318097D01*
X181209828Y-85374873D01*
X181147391Y-85400362D01*
X181020750Y-85414630D01*
X181020745Y-85414631D01*
X180850476Y-85474211D01*
X180697737Y-85570184D01*
X180570184Y-85697737D01*
X180474209Y-85850480D01*
X180450549Y-85918097D01*
X180409828Y-85974873D01*
X180347391Y-86000362D01*
X180220750Y-86014630D01*
X180220745Y-86014631D01*
X180050476Y-86074211D01*
X179897737Y-86170184D01*
X179770184Y-86297737D01*
X179674211Y-86450476D01*
X179614631Y-86620745D01*
X179614630Y-86620750D01*
X179594435Y-86799996D01*
X177649362Y-86799996D01*
X177600004Y-86794435D01*
X177599996Y-86794435D01*
X177420750Y-86814630D01*
X177420745Y-86814631D01*
X177250476Y-86874211D01*
X177097737Y-86970184D01*
X176970184Y-87097737D01*
X176874211Y-87250476D01*
X176814631Y-87420745D01*
X176814630Y-87420750D01*
X176794435Y-87599996D01*
X133449430Y-87599996D01*
X133579249Y-87585369D01*
X133579252Y-87585368D01*
X133579255Y-87585368D01*
X133749522Y-87525789D01*
X133902262Y-87429816D01*
X134029816Y-87302262D01*
X134125789Y-87149522D01*
X134185368Y-86979255D01*
X134191392Y-86925789D01*
X134205565Y-86800003D01*
X134205565Y-86799996D01*
X134185369Y-86620750D01*
X134185368Y-86620745D01*
X134160446Y-86549522D01*
X134125789Y-86450478D01*
X134029816Y-86297738D01*
X133902262Y-86170184D01*
X133749523Y-86074211D01*
X133579254Y-86014631D01*
X133579250Y-86014630D01*
X133452607Y-86000361D01*
X133388193Y-85973294D01*
X133349449Y-85918095D01*
X133334719Y-85876000D01*
X133325789Y-85850478D01*
X133229816Y-85697738D01*
X133102262Y-85570184D01*
X132949523Y-85474211D01*
X132779254Y-85414631D01*
X132779249Y-85414630D01*
X132600004Y-85394435D01*
X132599996Y-85394435D01*
X132420750Y-85414630D01*
X132420745Y-85414631D01*
X132250476Y-85474211D01*
X132097737Y-85570184D01*
X131970184Y-85697737D01*
X131874211Y-85850476D01*
X131814631Y-86020745D01*
X131814630Y-86020750D01*
X131794435Y-86199996D01*
X127732082Y-86199996D01*
X127829816Y-86102262D01*
X127925789Y-85949522D01*
X127985368Y-85779255D01*
X127991392Y-85725789D01*
X128005565Y-85600003D01*
X128005565Y-85599996D01*
X127985369Y-85420750D01*
X127985366Y-85420737D01*
X127943718Y-85301714D01*
X127940156Y-85231935D01*
X127974884Y-85171308D01*
X128036878Y-85139080D01*
X128101714Y-85143718D01*
X128220737Y-85185366D01*
X128220743Y-85185367D01*
X128220745Y-85185368D01*
X128220746Y-85185368D01*
X128220750Y-85185369D01*
X128399996Y-85205565D01*
X128400000Y-85205565D01*
X128400004Y-85205565D01*
X128579249Y-85185369D01*
X128579252Y-85185368D01*
X128579255Y-85185368D01*
X128749522Y-85125789D01*
X128902262Y-85029816D01*
X128932082Y-84999996D01*
X136394435Y-84999996D01*
X136394435Y-85000003D01*
X136414630Y-85179249D01*
X136414631Y-85179254D01*
X136474211Y-85349523D01*
X136552558Y-85474211D01*
X136570184Y-85502262D01*
X136697738Y-85629816D01*
X136788080Y-85686582D01*
X136805833Y-85697737D01*
X136850478Y-85725789D01*
X137003258Y-85779249D01*
X137020745Y-85785368D01*
X137020750Y-85785369D01*
X137199996Y-85805565D01*
X137200000Y-85805565D01*
X137200004Y-85805565D01*
X137379249Y-85785369D01*
X137379252Y-85785368D01*
X137379255Y-85785368D01*
X137549522Y-85725789D01*
X137702262Y-85629816D01*
X137829816Y-85502262D01*
X137925789Y-85349522D01*
X137985368Y-85179255D01*
X137985369Y-85179249D01*
X138005565Y-85000003D01*
X138005565Y-84999996D01*
X137985369Y-84820750D01*
X137985368Y-84820745D01*
X137925788Y-84650476D01*
X137881033Y-84579249D01*
X137829816Y-84497738D01*
X137702262Y-84370184D01*
X137665502Y-84347086D01*
X137549523Y-84274211D01*
X137379254Y-84214631D01*
X137379249Y-84214630D01*
X137200004Y-84194435D01*
X137199996Y-84194435D01*
X137020750Y-84214630D01*
X137020745Y-84214631D01*
X136850476Y-84274211D01*
X136697737Y-84370184D01*
X136570184Y-84497737D01*
X136474211Y-84650476D01*
X136414631Y-84820745D01*
X136414630Y-84820750D01*
X136394435Y-84999996D01*
X128932082Y-84999996D01*
X129029816Y-84902262D01*
X129125789Y-84749522D01*
X129185368Y-84579255D01*
X129185369Y-84579249D01*
X129205565Y-84400003D01*
X129205565Y-84399996D01*
X129185369Y-84220750D01*
X129185368Y-84220745D01*
X129125788Y-84050476D01*
X129029815Y-83897737D01*
X128902262Y-83770184D01*
X128749523Y-83674211D01*
X128579254Y-83614631D01*
X128579250Y-83614630D01*
X128493867Y-83605010D01*
X128429453Y-83577943D01*
X128389898Y-83520348D01*
X128386134Y-83457599D01*
X128387140Y-83452542D01*
X128415800Y-83308455D01*
X128415800Y-83161545D01*
X128387140Y-83017458D01*
X128330920Y-82881731D01*
X128330919Y-82881730D01*
X128330916Y-82881724D01*
X128277736Y-82802135D01*
X145849500Y-82802135D01*
X145849500Y-85197870D01*
X145849501Y-85197876D01*
X145855908Y-85257483D01*
X145906202Y-85392328D01*
X145906206Y-85392335D01*
X145992452Y-85507544D01*
X145992455Y-85507547D01*
X146107664Y-85593793D01*
X146107671Y-85593797D01*
X146242517Y-85644091D01*
X146242516Y-85644091D01*
X146249444Y-85644835D01*
X146302127Y-85650500D01*
X148697872Y-85650499D01*
X148757483Y-85644091D01*
X148892331Y-85593796D01*
X149007546Y-85507546D01*
X149093796Y-85392331D01*
X149144091Y-85257483D01*
X149150500Y-85197873D01*
X149150499Y-84414122D01*
X149170183Y-84347086D01*
X149222987Y-84301331D01*
X149292146Y-84291387D01*
X149355702Y-84320412D01*
X149393476Y-84379190D01*
X149395072Y-84385176D01*
X149425427Y-84511610D01*
X149425428Y-84511612D01*
X149524843Y-84751623D01*
X149524845Y-84751627D01*
X149524846Y-84751628D01*
X149660588Y-84973140D01*
X149829311Y-85170689D01*
X150026860Y-85339412D01*
X150248372Y-85475154D01*
X150248374Y-85475154D01*
X150248376Y-85475156D01*
X150309693Y-85500554D01*
X150488390Y-85574573D01*
X150741006Y-85635221D01*
X151000000Y-85655604D01*
X151258994Y-85635221D01*
X151511610Y-85574573D01*
X151751628Y-85475154D01*
X151973140Y-85339412D01*
X152170689Y-85170689D01*
X152339412Y-84973140D01*
X152475154Y-84751628D01*
X152574573Y-84511610D01*
X152635221Y-84258994D01*
X152655604Y-84000000D01*
X152635221Y-83741006D01*
X152574573Y-83488390D01*
X152475154Y-83248372D01*
X152339412Y-83026860D01*
X152170689Y-82829311D01*
X152138870Y-82802135D01*
X154249500Y-82802135D01*
X154249500Y-85197870D01*
X154249501Y-85197876D01*
X154255908Y-85257483D01*
X154306202Y-85392328D01*
X154306206Y-85392335D01*
X154392452Y-85507544D01*
X154392455Y-85507547D01*
X154507664Y-85593793D01*
X154507671Y-85593797D01*
X154642517Y-85644091D01*
X154642516Y-85644091D01*
X154649444Y-85644835D01*
X154702127Y-85650500D01*
X157097872Y-85650499D01*
X157157483Y-85644091D01*
X157292331Y-85593796D01*
X157407546Y-85507546D01*
X157493796Y-85392331D01*
X157544091Y-85257483D01*
X157550500Y-85197873D01*
X157550499Y-84414122D01*
X157570183Y-84347086D01*
X157622987Y-84301331D01*
X157692146Y-84291387D01*
X157755702Y-84320412D01*
X157793476Y-84379190D01*
X157795072Y-84385176D01*
X157825427Y-84511610D01*
X157825428Y-84511612D01*
X157924843Y-84751623D01*
X157924845Y-84751627D01*
X157924846Y-84751628D01*
X158060588Y-84973140D01*
X158229311Y-85170689D01*
X158426860Y-85339412D01*
X158648372Y-85475154D01*
X158648374Y-85475154D01*
X158648376Y-85475156D01*
X158709693Y-85500554D01*
X158888390Y-85574573D01*
X159141006Y-85635221D01*
X159400000Y-85655604D01*
X159658994Y-85635221D01*
X159911610Y-85574573D01*
X160151628Y-85475154D01*
X160373140Y-85339412D01*
X160570689Y-85170689D01*
X160739412Y-84973140D01*
X160875154Y-84751628D01*
X160974573Y-84511610D01*
X161035221Y-84258994D01*
X161055604Y-84000000D01*
X161035221Y-83741006D01*
X160974573Y-83488390D01*
X160875154Y-83248372D01*
X160739412Y-83026860D01*
X160570689Y-82829311D01*
X160538870Y-82802135D01*
X164649500Y-82802135D01*
X164649500Y-85197870D01*
X164649501Y-85197876D01*
X164655908Y-85257483D01*
X164706202Y-85392328D01*
X164706206Y-85392335D01*
X164792452Y-85507544D01*
X164792455Y-85507547D01*
X164907664Y-85593793D01*
X164907671Y-85593797D01*
X165042517Y-85644091D01*
X165042516Y-85644091D01*
X165049444Y-85644835D01*
X165102127Y-85650500D01*
X167497872Y-85650499D01*
X167557483Y-85644091D01*
X167692331Y-85593796D01*
X167807546Y-85507546D01*
X167893796Y-85392331D01*
X167944091Y-85257483D01*
X167950500Y-85197873D01*
X167950499Y-84414122D01*
X167970183Y-84347086D01*
X168022987Y-84301331D01*
X168092146Y-84291387D01*
X168155702Y-84320412D01*
X168193476Y-84379190D01*
X168195072Y-84385176D01*
X168225427Y-84511610D01*
X168225428Y-84511612D01*
X168324843Y-84751623D01*
X168324845Y-84751627D01*
X168324846Y-84751628D01*
X168460588Y-84973140D01*
X168629311Y-85170689D01*
X168826860Y-85339412D01*
X169048372Y-85475154D01*
X169048374Y-85475154D01*
X169048376Y-85475156D01*
X169109693Y-85500554D01*
X169288390Y-85574573D01*
X169541006Y-85635221D01*
X169800000Y-85655604D01*
X170058994Y-85635221D01*
X170311610Y-85574573D01*
X170551628Y-85475154D01*
X170773140Y-85339412D01*
X170970689Y-85170689D01*
X171139412Y-84973140D01*
X171275154Y-84751628D01*
X171374573Y-84511610D01*
X171435221Y-84258994D01*
X171455604Y-84000000D01*
X171435221Y-83741006D01*
X171374573Y-83488390D01*
X171275154Y-83248372D01*
X171139412Y-83026860D01*
X170970689Y-82829311D01*
X170773140Y-82660588D01*
X170551628Y-82524846D01*
X170551627Y-82524845D01*
X170551623Y-82524843D01*
X170385627Y-82456086D01*
X170311610Y-82425427D01*
X170311611Y-82425427D01*
X170173921Y-82392370D01*
X170058994Y-82364779D01*
X170058992Y-82364778D01*
X170058991Y-82364778D01*
X169800000Y-82344396D01*
X169541009Y-82364778D01*
X169288389Y-82425427D01*
X169048376Y-82524843D01*
X168826859Y-82660588D01*
X168629311Y-82829311D01*
X168460588Y-83026859D01*
X168324843Y-83248376D01*
X168240275Y-83452544D01*
X168225427Y-83488390D01*
X168195119Y-83614631D01*
X168195073Y-83614824D01*
X168160282Y-83675416D01*
X168098255Y-83707579D01*
X168028686Y-83701103D01*
X167973663Y-83658043D01*
X167950654Y-83592070D01*
X167950499Y-83585876D01*
X167950499Y-82802129D01*
X167950498Y-82802123D01*
X167950497Y-82802116D01*
X167944091Y-82742517D01*
X167913533Y-82660588D01*
X167893797Y-82607671D01*
X167893793Y-82607664D01*
X167807547Y-82492455D01*
X167807544Y-82492452D01*
X167692335Y-82406206D01*
X167692328Y-82406202D01*
X167557482Y-82355908D01*
X167557483Y-82355908D01*
X167497883Y-82349501D01*
X167497881Y-82349500D01*
X167497873Y-82349500D01*
X167497864Y-82349500D01*
X165102129Y-82349500D01*
X165102123Y-82349501D01*
X165042516Y-82355908D01*
X164907671Y-82406202D01*
X164907664Y-82406206D01*
X164792455Y-82492452D01*
X164792452Y-82492455D01*
X164706206Y-82607664D01*
X164706202Y-82607671D01*
X164655908Y-82742517D01*
X164649911Y-82798301D01*
X164649501Y-82802123D01*
X164649500Y-82802135D01*
X160538870Y-82802135D01*
X160373140Y-82660588D01*
X160151628Y-82524846D01*
X160151627Y-82524845D01*
X160151623Y-82524843D01*
X159985627Y-82456086D01*
X159911610Y-82425427D01*
X159911611Y-82425427D01*
X159773921Y-82392370D01*
X159658994Y-82364779D01*
X159658992Y-82364778D01*
X159658991Y-82364778D01*
X159400000Y-82344396D01*
X159141009Y-82364778D01*
X158888389Y-82425427D01*
X158648376Y-82524843D01*
X158426859Y-82660588D01*
X158229311Y-82829311D01*
X158060588Y-83026859D01*
X157924843Y-83248376D01*
X157840275Y-83452544D01*
X157825427Y-83488390D01*
X157795119Y-83614631D01*
X157795073Y-83614824D01*
X157760282Y-83675416D01*
X157698255Y-83707579D01*
X157628686Y-83701103D01*
X157573663Y-83658043D01*
X157550654Y-83592070D01*
X157550499Y-83585876D01*
X157550499Y-82802129D01*
X157550498Y-82802123D01*
X157550497Y-82802116D01*
X157544091Y-82742517D01*
X157513533Y-82660588D01*
X157493797Y-82607671D01*
X157493793Y-82607664D01*
X157407547Y-82492455D01*
X157407544Y-82492452D01*
X157292335Y-82406206D01*
X157292328Y-82406202D01*
X157157482Y-82355908D01*
X157157483Y-82355908D01*
X157097883Y-82349501D01*
X157097881Y-82349500D01*
X157097873Y-82349500D01*
X157097864Y-82349500D01*
X154702129Y-82349500D01*
X154702123Y-82349501D01*
X154642516Y-82355908D01*
X154507671Y-82406202D01*
X154507664Y-82406206D01*
X154392455Y-82492452D01*
X154392452Y-82492455D01*
X154306206Y-82607664D01*
X154306202Y-82607671D01*
X154255908Y-82742517D01*
X154249911Y-82798301D01*
X154249501Y-82802123D01*
X154249500Y-82802135D01*
X152138870Y-82802135D01*
X151973140Y-82660588D01*
X151751628Y-82524846D01*
X151751627Y-82524845D01*
X151751623Y-82524843D01*
X151585627Y-82456086D01*
X151511610Y-82425427D01*
X151511611Y-82425427D01*
X151373921Y-82392370D01*
X151258994Y-82364779D01*
X151258992Y-82364778D01*
X151258991Y-82364778D01*
X151000000Y-82344396D01*
X150741009Y-82364778D01*
X150488389Y-82425427D01*
X150248376Y-82524843D01*
X150026859Y-82660588D01*
X149829311Y-82829311D01*
X149660588Y-83026859D01*
X149524843Y-83248376D01*
X149440275Y-83452544D01*
X149425427Y-83488390D01*
X149395119Y-83614631D01*
X149395073Y-83614824D01*
X149360282Y-83675416D01*
X149298255Y-83707579D01*
X149228686Y-83701103D01*
X149173663Y-83658043D01*
X149150654Y-83592070D01*
X149150499Y-83585876D01*
X149150499Y-82802129D01*
X149150498Y-82802123D01*
X149150497Y-82802116D01*
X149144091Y-82742517D01*
X149113533Y-82660588D01*
X149093797Y-82607671D01*
X149093793Y-82607664D01*
X149007547Y-82492455D01*
X149007544Y-82492452D01*
X148892335Y-82406206D01*
X148892328Y-82406202D01*
X148757482Y-82355908D01*
X148757483Y-82355908D01*
X148697883Y-82349501D01*
X148697881Y-82349500D01*
X148697873Y-82349500D01*
X148697864Y-82349500D01*
X146302129Y-82349500D01*
X146302123Y-82349501D01*
X146242516Y-82355908D01*
X146107671Y-82406202D01*
X146107664Y-82406206D01*
X145992455Y-82492452D01*
X145992452Y-82492455D01*
X145906206Y-82607664D01*
X145906202Y-82607671D01*
X145855908Y-82742517D01*
X145849911Y-82798301D01*
X145849501Y-82802123D01*
X145849500Y-82802135D01*
X128277736Y-82802135D01*
X128249301Y-82759580D01*
X128249298Y-82759576D01*
X128145423Y-82655701D01*
X128145419Y-82655698D01*
X128023275Y-82574083D01*
X128023266Y-82574078D01*
X127887544Y-82517861D01*
X127887545Y-82517861D01*
X127887542Y-82517860D01*
X127887538Y-82517859D01*
X127887534Y-82517858D01*
X127743459Y-82489200D01*
X127743455Y-82489200D01*
X127596545Y-82489200D01*
X127596540Y-82489200D01*
X127452465Y-82517858D01*
X127452455Y-82517861D01*
X127316733Y-82574078D01*
X127316724Y-82574083D01*
X127194580Y-82655698D01*
X127194576Y-82655701D01*
X127090701Y-82759576D01*
X127090698Y-82759580D01*
X127009083Y-82881724D01*
X127009078Y-82881733D01*
X126952861Y-83017455D01*
X126952858Y-83017465D01*
X126924200Y-83161540D01*
X126924200Y-83308459D01*
X126952858Y-83452534D01*
X126952861Y-83452544D01*
X127009078Y-83588266D01*
X127009083Y-83588275D01*
X127090698Y-83710419D01*
X127090701Y-83710423D01*
X127194576Y-83814298D01*
X127194580Y-83814301D01*
X127316724Y-83895916D01*
X127316733Y-83895921D01*
X127321120Y-83897738D01*
X127452458Y-83952140D01*
X127551960Y-83971931D01*
X127613868Y-84004315D01*
X127648443Y-84065030D01*
X127644809Y-84134502D01*
X127614632Y-84220742D01*
X127614630Y-84220750D01*
X127594435Y-84399996D01*
X127594435Y-84400003D01*
X127614630Y-84579249D01*
X127614632Y-84579257D01*
X127656282Y-84698286D01*
X127659843Y-84768065D01*
X127625114Y-84828692D01*
X127563121Y-84860919D01*
X127498286Y-84856282D01*
X127379257Y-84814632D01*
X127379249Y-84814630D01*
X127200004Y-84794435D01*
X127199996Y-84794435D01*
X127020750Y-84814630D01*
X127020745Y-84814631D01*
X126850476Y-84874211D01*
X126697737Y-84970184D01*
X126570184Y-85097737D01*
X126474211Y-85250476D01*
X126414631Y-85420745D01*
X126414630Y-85420750D01*
X126394435Y-85599996D01*
X120000000Y-85599996D01*
X120000000Y-84177540D01*
X121844200Y-84177540D01*
X121844200Y-84324459D01*
X121872858Y-84468534D01*
X121872861Y-84468544D01*
X121929078Y-84604266D01*
X121929083Y-84604275D01*
X122010698Y-84726419D01*
X122010701Y-84726423D01*
X122114576Y-84830298D01*
X122114580Y-84830301D01*
X122236724Y-84911916D01*
X122236730Y-84911919D01*
X122236731Y-84911920D01*
X122372458Y-84968140D01*
X122516540Y-84996799D01*
X122516544Y-84996800D01*
X122516545Y-84996800D01*
X122663456Y-84996800D01*
X122663457Y-84996799D01*
X122807542Y-84968140D01*
X122943269Y-84911920D01*
X123065420Y-84830301D01*
X123169301Y-84726420D01*
X123250920Y-84604269D01*
X123307140Y-84468542D01*
X123335800Y-84324455D01*
X123335800Y-84177545D01*
X123307140Y-84033458D01*
X123250923Y-83897738D01*
X123250921Y-83897733D01*
X123250916Y-83897724D01*
X123169301Y-83775580D01*
X123169298Y-83775576D01*
X123065423Y-83671701D01*
X123065419Y-83671698D01*
X122943275Y-83590083D01*
X122943266Y-83590078D01*
X122807544Y-83533861D01*
X122807545Y-83533861D01*
X122807542Y-83533860D01*
X122807538Y-83533859D01*
X122807534Y-83533858D01*
X122663459Y-83505200D01*
X122663455Y-83505200D01*
X122516545Y-83505200D01*
X122516540Y-83505200D01*
X122372465Y-83533858D01*
X122372455Y-83533861D01*
X122236733Y-83590078D01*
X122236724Y-83590083D01*
X122114580Y-83671698D01*
X122114576Y-83671701D01*
X122010701Y-83775576D01*
X122010698Y-83775580D01*
X121929083Y-83897724D01*
X121929078Y-83897733D01*
X121872861Y-84033455D01*
X121872858Y-84033465D01*
X121844200Y-84177540D01*
X120000000Y-84177540D01*
X120000000Y-82145540D01*
X121844200Y-82145540D01*
X121844200Y-82292459D01*
X121872858Y-82436534D01*
X121872861Y-82436544D01*
X121929078Y-82572266D01*
X121929083Y-82572275D01*
X122010698Y-82694419D01*
X122010701Y-82694423D01*
X122114576Y-82798298D01*
X122114580Y-82798301D01*
X122236724Y-82879916D01*
X122236730Y-82879919D01*
X122236731Y-82879920D01*
X122372458Y-82936140D01*
X122516540Y-82964799D01*
X122516544Y-82964800D01*
X122516545Y-82964800D01*
X122663456Y-82964800D01*
X122663457Y-82964799D01*
X122807542Y-82936140D01*
X122943269Y-82879920D01*
X123065420Y-82798301D01*
X123169301Y-82694420D01*
X123250920Y-82572269D01*
X123307140Y-82436542D01*
X123335800Y-82292455D01*
X123335800Y-82145545D01*
X123307140Y-82001458D01*
X123250920Y-81865731D01*
X123250919Y-81865730D01*
X123250916Y-81865724D01*
X123169301Y-81743580D01*
X123169298Y-81743576D01*
X123065423Y-81639701D01*
X123065419Y-81639698D01*
X122943275Y-81558083D01*
X122943266Y-81558078D01*
X122807544Y-81501861D01*
X122807545Y-81501861D01*
X122807542Y-81501860D01*
X122807538Y-81501859D01*
X122807534Y-81501858D01*
X122663459Y-81473200D01*
X122663455Y-81473200D01*
X122516545Y-81473200D01*
X122516540Y-81473200D01*
X122372465Y-81501858D01*
X122372455Y-81501861D01*
X122236733Y-81558078D01*
X122236724Y-81558083D01*
X122114580Y-81639698D01*
X122114576Y-81639701D01*
X122010701Y-81743576D01*
X122010698Y-81743580D01*
X121929083Y-81865724D01*
X121929078Y-81865733D01*
X121872861Y-82001455D01*
X121872858Y-82001465D01*
X121844200Y-82145540D01*
X120000000Y-82145540D01*
X120000000Y-81124000D01*
X120019685Y-81056961D01*
X120072489Y-81011206D01*
X120124000Y-81000000D01*
X185876000Y-81000000D01*
X185943039Y-81019685D01*
G37*
%TD.AperFunction*%
%TD*%
M02*
