%TF.GenerationSoftware,KiCad,Pcbnew,8.0.9*%
%TF.CreationDate,2025-03-20T13:35:36-07:00*%
%TF.ProjectId,bmbbmcp,626d6262-6d63-4702-9e6b-696361645f70,R1*%
%TF.SameCoordinates,Original*%
%TF.FileFunction,Copper,L4,Bot*%
%TF.FilePolarity,Positive*%
%FSLAX46Y46*%
G04 Gerber Fmt 4.6, Leading zero omitted, Abs format (unit mm)*
G04 Created by KiCad (PCBNEW 8.0.9) date 2025-03-20 13:35:36*
%MOMM*%
%LPD*%
G01*
G04 APERTURE LIST*
%TA.AperFunction,HeatsinkPad*%
%ADD10O,1.000000X1.900000*%
%TD*%
%TA.AperFunction,HeatsinkPad*%
%ADD11O,1.050000X1.250000*%
%TD*%
%TA.AperFunction,ComponentPad*%
%ADD12R,1.350000X1.350000*%
%TD*%
%TA.AperFunction,ComponentPad*%
%ADD13O,1.350000X1.350000*%
%TD*%
%TA.AperFunction,ViaPad*%
%ADD14C,0.600000*%
%TD*%
%TA.AperFunction,Conductor*%
%ADD15C,0.200000*%
%TD*%
%TA.AperFunction,Conductor*%
%ADD16C,0.100000*%
%TD*%
G04 APERTURE END LIST*
D10*
%TO.P,J1,6,Shield*%
%TO.N,unconnected-(J1-Shield-Pad6)_5*%
X175630000Y-87365000D03*
D11*
%TO.N,unconnected-(J1-Shield-Pad6)_1*%
X173680000Y-90365000D03*
%TO.N,unconnected-(J1-Shield-Pad6)_2*%
X169230000Y-90365000D03*
D10*
%TO.N,unconnected-(J1-Shield-Pad6)*%
X167280000Y-87365000D03*
%TD*%
D12*
%TO.P,J3,1,Pin_1*%
%TO.N,+BATT*%
X159915000Y-97915000D03*
D13*
%TO.P,J3,2,Pin_2*%
%TO.N,+3.3V*%
X161915000Y-97915000D03*
%TO.P,J3,3,Pin_3*%
%TO.N,unconnected-(J3-Pin_3-Pad3)*%
X163915000Y-97915000D03*
%TO.P,J3,4,Pin_4*%
%TO.N,GND*%
X165915000Y-97915000D03*
%TD*%
D14*
%TO.N,GND*%
X150415000Y-91415000D03*
X161915000Y-91915000D03*
X145915000Y-96415000D03*
X138415000Y-95915000D03*
X161915000Y-88915000D03*
X138415000Y-89915000D03*
X137115000Y-88115000D03*
X172415000Y-91415000D03*
X172915000Y-98415000D03*
X146415000Y-92915000D03*
X161915000Y-93915000D03*
X125415000Y-98415000D03*
X145915000Y-87915000D03*
X125415000Y-87415000D03*
%TO.N,VBUS*%
X137067861Y-88913609D03*
X154515000Y-89115000D03*
%TO.N,/SWCLK*%
X171915000Y-93915000D03*
X126415000Y-87415000D03*
%TO.N,/~{RESET}*%
X171715000Y-98115000D03*
X149015000Y-90815000D03*
X131915000Y-90915000D03*
%TO.N,/SWDIO*%
X170915000Y-93915000D03*
X127415000Y-87415000D03*
%TO.N,/USBD+*%
X134315000Y-87315000D03*
X163915000Y-90115000D03*
%TO.N,/USBD-*%
X162515000Y-87915000D03*
X135515000Y-87315000D03*
%TD*%
D15*
%TO.N,VBUS*%
X137269252Y-89115000D02*
X137067861Y-88913609D01*
X154515000Y-89115000D02*
X137269252Y-89115000D01*
D16*
%TO.N,/SWCLK*%
X164172107Y-86465000D02*
X171415000Y-93707893D01*
X127365000Y-86465000D02*
X164172107Y-86465000D01*
X171707893Y-93707893D02*
X171915000Y-93915000D01*
X171915000Y-93915000D02*
X171725406Y-93915000D01*
X126415000Y-87415000D02*
X127365000Y-86465000D01*
X171415000Y-93707893D02*
X171707893Y-93707893D01*
%TO.N,/~{RESET}*%
X170990000Y-98840000D02*
X171715000Y-98115000D01*
X148915000Y-90915000D02*
X131915000Y-90915000D01*
X149015000Y-90815000D02*
X148915000Y-90915000D01*
X149015000Y-90815000D02*
X150815000Y-90815000D01*
X158840000Y-98840000D02*
X170990000Y-98840000D01*
X150815000Y-90815000D02*
X158840000Y-98840000D01*
%TO.N,/SWDIO*%
X163915000Y-86915000D02*
X170915000Y-93915000D01*
X135822107Y-86915000D02*
X163915000Y-86915000D01*
X128015000Y-86815000D02*
X135722107Y-86815000D01*
X127415000Y-87415000D02*
X128015000Y-86815000D01*
X135722107Y-86815000D02*
X135822107Y-86915000D01*
%TO.N,/USBD+*%
X163915000Y-90115000D02*
X144492818Y-90115000D01*
X144142818Y-90465000D02*
X137465000Y-90465000D01*
X137465000Y-90465000D02*
X134315000Y-87315000D01*
X144492818Y-90115000D02*
X144142818Y-90465000D01*
%TO.N,/USBD-*%
X162515000Y-87915000D02*
X161915000Y-87315000D01*
X161915000Y-87315000D02*
X135515000Y-87315000D01*
%TD*%
M02*
